<svg width="1203" height="1203" viewBox="0 0 1203 1203" fill="none" xmlns="http://www.w3.org/2000/svg">
<circle cx="601.25" cy="601.25" r="601.25" fill="url(#paint0_linear_189_157)"/>
<path d="M587.499 455.766V548.517C587.499 558.423 592.256 559.55 612.271 564.29L612.697 564.391C628.995 568.251 636.108 608.711 634.678 629.799C634.678 656.069 606.799 650.708 606.799 627.118C606.799 599.733 588.476 585.126 573.559 576.722C559.855 569.001 549.312 567.071 539.783 567.071C529.061 567.071 519.363 568.272 514.049 576.722C508.237 585.964 509.328 596.527 519.41 603.528C531.893 612.197 547.221 614.691 561.229 623.365C568.88 628.103 571.951 641.593 576.24 651.78C579.993 701.104 620.56 712.184 634.678 712.899C710.594 712.899 722.067 681.267 722.067 620.684C651.298 620.684 636.823 590.125 634.678 548.517V455.766C634.678 415.557 587.499 418.237 587.499 455.766Z" fill="url(#paint1_linear_189_157)"/>
<path d="M587.499 455.766V548.517C587.499 558.423 592.256 559.55 612.271 564.29L612.697 564.391C628.995 568.251 636.108 608.711 634.678 629.799C634.678 656.069 606.799 650.708 606.799 627.118C606.799 599.733 588.476 585.126 573.559 576.722C559.855 569.001 549.312 567.071 539.783 567.071C529.061 567.071 519.363 568.272 514.049 576.722C508.237 585.964 509.328 596.527 519.41 603.528C531.893 612.197 547.221 614.691 561.229 623.365C568.88 628.103 571.951 641.593 576.24 651.78C579.993 701.104 620.56 712.184 634.678 712.899C710.594 712.899 722.067 681.267 722.067 620.684C651.298 620.684 636.823 590.125 634.678 548.517V455.766C634.678 415.557 587.499 418.237 587.499 455.766Z" fill="url(#paint2_linear_189_157)" fill-opacity="0.81"/>
<path d="M587.499 455.766V548.517C587.499 558.423 592.256 559.55 612.271 564.29L612.697 564.391C628.995 568.251 636.108 608.711 634.678 629.799C634.678 656.069 606.799 650.708 606.799 627.118C606.799 599.733 588.476 585.126 573.559 576.722C559.855 569.001 549.312 567.071 539.783 567.071C529.061 567.071 519.363 568.272 514.049 576.722C508.237 585.964 509.328 596.527 519.41 603.528C531.893 612.197 547.221 614.691 561.229 623.365C568.88 628.103 571.951 641.593 576.24 651.78C579.993 701.104 620.56 712.184 634.678 712.899C710.594 712.899 722.067 681.267 722.067 620.684C651.298 620.684 636.823 590.125 634.678 548.517V455.766C634.678 415.557 587.499 418.237 587.499 455.766Z" stroke="black"/>
<path d="M381.626 650.172C381.626 683.197 371.26 700.032 359.644 708.61C355.355 709.503 336.484 722.335 346.777 732.199C375.728 714.507 443.281 703.785 465.798 700.032C483.812 697.029 479.023 666.077 478.665 650.172V299.007C478.665 215.37 419.691 201.967 381.626 196.07C343.56 190.172 314.609 231.454 338.199 255.58C366.078 255.58 378.766 284.531 381.626 299.007V650.172Z" fill="url(#paint3_linear_189_157)"/>
<path d="M381.626 650.172C381.626 683.197 371.26 700.032 359.644 708.61C355.355 709.503 336.484 722.335 346.777 732.199C375.728 714.507 443.281 703.785 465.798 700.032C483.812 697.029 479.023 666.077 478.665 650.172V299.007C478.665 215.37 419.691 201.967 381.626 196.07C343.56 190.172 314.609 231.454 338.199 255.58C366.078 255.58 378.766 284.531 381.626 299.007V650.172Z" fill="url(#paint4_linear_189_157)" fill-opacity="0.9"/>
<path d="M381.626 650.172C381.626 683.197 371.26 700.032 359.644 708.61C355.355 709.503 336.484 722.335 346.777 732.199C375.728 714.507 443.281 703.785 465.798 700.032C483.812 697.029 479.023 666.077 478.665 650.172V299.007C478.665 215.37 419.691 201.967 381.626 196.07C343.56 190.172 314.609 231.454 338.199 255.58C366.078 255.58 378.766 284.531 381.626 299.007V650.172Z" stroke="black"/>
<path d="M450.25 854.646C464.404 850.786 502.255 773.333 519.411 735.089C529.418 742.595 571.415 757.606 659.341 757.606C747.266 757.606 765.316 688.267 763.35 653.597V515.276C773.536 499.192 883.443 593.015 890.412 672.362C897.382 751.709 841.089 816.581 792.301 849.285C709.737 897 487.779 854.646 450.25 854.646Z" fill="url(#paint5_radial_189_157)"/>
<g filter="url(#filter0_i_189_157)">
<path d="M319.879 800.87C343.469 747.257 435.862 735.641 479.109 736.535C472.14 756.372 441.446 810.874 420 835C402.004 852.996 371.937 861.692 358.176 863.122C341 863.122 296.289 854.483 319.879 800.87Z" fill="url(#paint6_linear_189_157)"/>
<path d="M319.879 800.87C343.469 747.257 435.862 735.641 479.109 736.535C472.14 756.372 441.446 810.874 420 835C402.004 852.996 371.937 861.692 358.176 863.122C341 863.122 296.289 854.483 319.879 800.87Z" stroke="black"/>
</g>
<rect x="670" y="487.5" width="48" height="113" rx="23" fill="url(#paint7_linear_189_157)"/>
<rect x="670" y="487.5" width="48" height="113" rx="23" fill="url(#paint8_linear_189_157)" fill-opacity="0.74"/>
<path d="M355.764 997.5C354.23 997.5 352.897 996.933 351.764 995.8C350.697 994.667 350.164 993.333 350.164 991.8V930.2C350.164 928.667 350.697 927.333 351.764 926.2C352.897 925.067 354.23 924.5 355.764 924.5H358.964C360.497 924.5 361.83 925.067 362.964 926.2C364.097 927.333 364.664 928.667 364.664 930.2V985C364.664 985.6 364.93 985.9 365.464 985.9H391.164C392.697 985.9 393.997 986.467 395.064 987.6C396.197 988.667 396.764 989.967 396.764 991.5V991.8C396.764 993.333 396.197 994.667 395.064 995.8C393.997 996.933 392.697 997.5 391.164 997.5H355.764ZM463.046 971.5C463.046 989.5 454.046 998.5 436.046 998.5C418.046 998.5 409.046 989.5 409.046 971.5V930.2C409.046 928.667 409.613 927.333 410.746 926.2C411.88 925.067 413.213 924.5 414.746 924.5H417.546C419.08 924.5 420.413 925.067 421.546 926.2C422.68 927.333 423.246 928.667 423.246 930.2V972.3C423.246 977.5 424.28 981.267 426.346 983.6C428.48 985.867 431.78 987 436.246 987C440.713 987 443.98 985.867 446.046 983.6C448.18 981.267 449.246 977.5 449.246 972.3V930.2C449.246 928.667 449.813 927.333 450.946 926.2C452.08 925.067 453.413 924.5 454.946 924.5H457.346C458.88 924.5 460.213 925.067 461.346 926.2C462.48 927.333 463.046 928.667 463.046 930.2V971.5ZM482.655 997.5C481.388 997.5 480.422 996.967 479.755 995.9C479.088 994.767 479.055 993.633 479.655 992.5L496.355 961.3C496.622 960.9 496.622 960.4 496.355 959.8L480.155 929.5C479.555 928.367 479.588 927.267 480.255 926.2C480.922 925.067 481.888 924.5 483.155 924.5H487.455C489.188 924.5 490.788 924.967 492.255 925.9C493.722 926.833 494.822 928.067 495.555 929.6L506.055 951.7C506.055 951.767 506.088 951.8 506.155 951.8C506.222 951.8 506.255 951.767 506.255 951.7L516.755 929.6C517.488 928.067 518.588 926.833 520.055 925.9C521.522 924.967 523.122 924.5 524.855 924.5H528.755C530.088 924.5 531.055 925.067 531.655 926.2C532.322 927.267 532.355 928.367 531.755 929.5L515.555 959.8C515.355 960.267 515.355 960.767 515.555 961.3L532.255 992.5C532.855 993.633 532.822 994.767 532.155 995.9C531.555 996.967 530.588 997.5 529.255 997.5H524.655C522.922 997.5 521.288 997.033 519.755 996.1C518.288 995.167 517.222 993.933 516.555 992.4L505.855 969.3C505.855 969.233 505.822 969.2 505.755 969.2C505.688 969.2 505.655 969.233 505.655 969.3L494.955 992.4C494.288 993.933 493.188 995.167 491.655 996.1C490.188 997.033 488.588 997.5 486.855 997.5H482.655ZM565.735 966.7C557.735 964.033 551.935 960.8 548.335 957C544.801 953.2 543.035 948.6 543.035 943.2C543.035 937.133 545.068 932.333 549.135 928.8C553.201 925.267 558.901 923.5 566.235 923.5C572.435 923.5 577.835 924.2 582.435 925.6C584.035 926.067 585.301 927.033 586.235 928.5C587.235 929.9 587.735 931.467 587.735 933.2V934.1C587.735 935.367 587.168 936.367 586.035 937.1C584.901 937.767 583.735 937.867 582.535 937.4C577.535 935.467 572.435 934.5 567.235 934.5C563.901 934.5 561.368 935.267 559.635 936.8C557.901 938.333 557.035 940.467 557.035 943.2C557.035 948 560.168 951.433 566.435 953.5C575.435 956.367 581.668 959.633 585.135 963.3C588.668 966.967 590.435 971.7 590.435 977.5C590.435 991.5 581.801 998.5 564.535 998.5C559.135 998.5 554.235 997.667 549.835 996C548.235 995.4 546.968 994.367 546.035 992.9C545.168 991.433 544.735 989.8 544.735 988V986.8C544.735 985.533 545.268 984.633 546.335 984.1C547.401 983.5 548.501 983.467 549.635 984C554.035 986.2 558.668 987.3 563.535 987.3C572.001 987.3 576.235 984.1 576.235 977.7C576.235 975.1 575.435 972.967 573.835 971.3C572.235 969.567 569.535 968.033 565.735 966.7ZM618.038 991.9L605.238 930.1C604.905 928.633 605.205 927.333 606.138 926.2C607.138 925.067 608.371 924.5 609.838 924.5H612.738C614.405 924.5 615.838 925.033 617.038 926.1C618.238 927.167 618.971 928.5 619.238 930.1L627.538 982.7C627.538 982.767 627.571 982.8 627.638 982.8C627.771 982.8 627.838 982.767 627.838 982.7L635.838 930.1C636.105 928.5 636.838 927.167 638.038 926.1C639.238 925.033 640.671 924.5 642.338 924.5H648.338C650.005 924.5 651.438 925.033 652.638 926.1C653.838 927.167 654.571 928.5 654.838 930.1L662.938 982.7C662.938 982.767 662.971 982.8 663.038 982.8C663.105 982.8 663.138 982.767 663.138 982.7L671.438 930.1C671.705 928.5 672.438 927.167 673.638 926.1C674.838 925.033 676.271 924.5 677.938 924.5H680.438C681.905 924.5 683.105 925.067 684.038 926.2C684.971 927.333 685.305 928.633 685.038 930.1L672.238 991.9C671.905 993.5 671.105 994.833 669.838 995.9C668.571 996.967 667.105 997.5 665.438 997.5H660.138C658.471 997.5 657.005 996.967 655.738 995.9C654.538 994.833 653.805 993.5 653.538 991.9L645.238 939.3C645.238 939.233 645.205 939.2 645.138 939.2C645.071 939.2 645.038 939.233 645.038 939.3L636.738 991.9C636.471 993.5 635.705 994.833 634.438 995.9C633.238 996.967 631.805 997.5 630.138 997.5H624.838C623.171 997.5 621.705 996.967 620.438 995.9C619.171 994.833 618.371 993.5 618.038 991.9ZM709.231 997.5C707.698 997.5 706.364 996.933 705.231 995.8C704.098 994.667 703.531 993.333 703.531 991.8V930.2C703.531 928.667 704.098 927.333 705.231 926.2C706.364 925.067 707.698 924.5 709.231 924.5H713.231C714.764 924.5 716.098 925.067 717.231 926.2C718.364 927.333 718.931 928.667 718.931 930.2V991.8C718.931 993.333 718.364 994.667 717.231 995.8C716.098 996.933 714.764 997.5 713.231 997.5H709.231ZM755.487 935.9V960C755.487 960.467 755.754 960.767 756.287 960.9C758.82 961.233 761.287 961.4 763.687 961.4C769.087 961.4 773.187 960.233 775.987 957.9C778.854 955.5 780.287 952.1 780.287 947.7C780.287 938.833 774.754 934.4 763.687 934.4C761.287 934.4 758.82 934.567 756.287 934.9C755.754 935.033 755.487 935.367 755.487 935.9ZM747.287 997.5C745.754 997.5 744.42 996.933 743.287 995.8C742.22 994.667 741.687 993.333 741.687 991.8V930.7C741.687 929.1 742.22 927.667 743.287 926.4C744.354 925.133 745.687 924.433 747.287 924.3C752.954 923.767 758.42 923.5 763.687 923.5C773.687 923.5 781.187 925.5 786.187 929.5C791.187 933.433 793.687 939.167 793.687 946.7C793.687 955.033 791.254 961.333 786.387 965.6C781.587 969.867 774.454 972 764.987 972C762.787 972 759.887 971.867 756.287 971.6C755.754 971.6 755.487 971.867 755.487 972.4V991.8C755.487 993.333 754.92 994.667 753.787 995.8C752.654 996.933 751.32 997.5 749.787 997.5H747.287ZM815.18 997.5C813.647 997.5 812.313 996.933 811.18 995.8C810.047 994.667 809.48 993.333 809.48 991.8V930.2C809.48 928.667 810.047 927.333 811.18 926.2C812.313 925.067 813.647 924.5 815.18 924.5H849.18C850.713 924.5 852.047 925.067 853.18 926.2C854.313 927.333 854.88 928.667 854.88 930.2C854.88 931.733 854.313 933.067 853.18 934.2C852.047 935.267 850.713 935.8 849.18 935.8H824.38C823.78 935.8 823.48 936.1 823.48 936.7V952.8C823.48 953.4 823.78 953.7 824.38 953.7H847.48C849.013 953.7 850.28 954.233 851.28 955.3C852.347 956.367 852.88 957.633 852.88 959.1C852.88 960.567 852.347 961.833 851.28 962.9C850.28 963.9 849.013 964.4 847.48 964.4H824.38C823.78 964.4 823.48 964.7 823.48 965.3V985.3C823.48 985.9 823.78 986.2 824.38 986.2H849.18C850.713 986.2 852.047 986.767 853.18 987.9C854.313 988.967 854.88 990.267 854.88 991.8C854.88 993.333 854.313 994.667 853.18 995.8C852.047 996.933 850.713 997.5 849.18 997.5H815.18Z" fill="white"/>
<g filter="url(#filter1_d_189_157)">
<path d="M565 351.682L576.145 331.092L593.84 323.5H626.701L644.625 331.092L656 351.682L644.625 356.744L637.501 348.576V402.065H584.303V348.576L577.064 356.744L565 351.682Z" fill="url(#paint9_linear_189_157)"/>
<path d="M594.391 323.5C596.88 327.641 603.743 335.923 611.281 335.923C618.818 335.923 625.069 327.641 627.252 323.5" stroke="#650667" stroke-width="2"/>
</g>
<path d="M610.456 362.705V366.605C610.456 367.021 610.656 367.069 611.497 367.268L611.515 367.272C612.2 367.435 612.5 369.136 612.439 370.023C612.439 371.127 611.267 370.902 611.267 369.91C611.267 368.758 610.497 368.144 609.869 367.791C609.293 367.466 608.85 367.385 608.449 367.385C607.998 367.385 607.591 367.435 607.367 367.791C607.123 368.179 607.169 368.624 607.593 368.918C608.117 369.282 608.762 369.387 609.351 369.752C609.673 369.951 609.802 370.519 609.982 370.947C610.14 373.021 611.846 373.487 612.439 373.517C615.632 373.517 616.114 372.187 616.114 369.639C613.138 369.639 612.53 368.354 612.439 366.605V362.705C612.439 361.014 610.456 361.127 610.456 362.705Z" fill="#863E83"/>
<path d="M601.8 370.879C601.8 372.268 601.364 372.976 600.875 373.337C600.695 373.374 599.901 373.914 600.334 374.328C601.552 373.584 604.392 373.134 605.339 372.976C606.096 372.85 605.895 371.548 605.88 370.879V356.113C605.88 352.596 603.4 352.033 601.8 351.785C600.199 351.537 598.982 353.273 599.973 354.287C601.146 354.287 601.679 355.504 601.8 356.113V370.879Z" fill="#863E83"/>
<path d="M604.686 379.477C605.281 379.315 606.872 376.058 607.594 374.45C608.015 374.766 609.78 375.397 613.478 375.397C617.175 375.397 617.934 372.481 617.851 371.023V365.207C618.279 364.531 622.901 368.476 623.194 371.812C623.487 375.149 621.12 377.877 619.068 379.252C615.597 381.258 606.264 379.477 604.686 379.477Z" fill="#863E83"/>
<g filter="url(#filter2_i_189_157)">
<path d="M599.203 377.216C600.195 374.962 604.08 374.473 605.899 374.511C605.606 375.345 604.546 377.667 603.644 378.681C603.103 379.601 601.608 380.109 601.029 380.169C600.007 380.087 598.211 379.47 599.203 377.216Z" fill="#863E83"/>
<path d="M599.203 377.216C600.195 374.962 604.08 374.473 605.899 374.511C605.606 375.345 604.546 377.667 603.644 378.681C603.103 379.601 601.608 380.109 601.029 380.169C600.007 380.087 598.211 379.47 599.203 377.216Z" stroke="black"/>
</g>
<rect x="613.926" y="364.039" width="2.01835" height="4.75154" rx="1.00918" fill="#863E83"/>
<g filter="url(#filter3_i_189_157)">
<circle cx="549" cy="372.5" r="15" fill="url(#paint10_linear_189_157)"/>
</g>
<g filter="url(#filter4_i_189_157)">
<circle cx="673" cy="372.5" r="15" fill="url(#paint11_linear_189_157)"/>
</g>
<g filter="url(#filter5_i_189_157)">
<circle cx="514" cy="377.5" r="10" fill="url(#paint12_linear_189_157)"/>
</g>
<g filter="url(#filter6_i_189_157)">
<circle cx="708" cy="377.5" r="10" fill="url(#paint13_linear_189_157)"/>
</g>
<defs>
<filter id="filter0_i_189_157" x="313.154" y="704.588" width="185.955" height="158.534" filterUnits="userSpaceOnUse" color-interpolation-filters="sRGB">
<feFlood flood-opacity="0" result="BackgroundImageFix"/>
<feBlend mode="normal" in="SourceGraphic" in2="BackgroundImageFix" result="shape"/>
<feColorMatrix in="SourceAlpha" type="matrix" values="0 0 0 0 0 0 0 0 0 0 0 0 0 0 0 0 0 0 127 0" result="hardAlpha"/>
<feOffset dx="20" dy="-32"/>
<feGaussianBlur stdDeviation="15.95"/>
<feComposite in2="hardAlpha" operator="arithmetic" k2="-1" k3="1"/>
<feColorMatrix type="matrix" values="0 0 0 0 0 0 0 0 0 0 0 0 0 0 0 0 0 0 0.15 0"/>
<feBlend mode="normal" in2="shape" result="effect1_innerShadow_189_157"/>
</filter>
<filter id="filter1_d_189_157" x="550" y="313.985" width="121" height="109.08" filterUnits="userSpaceOnUse" color-interpolation-filters="sRGB">
<feFlood flood-opacity="0" result="BackgroundImageFix"/>
<feColorMatrix in="SourceAlpha" type="matrix" values="0 0 0 0 0 0 0 0 0 0 0 0 0 0 0 0 0 0 127 0" result="hardAlpha"/>
<feOffset dy="6"/>
<feGaussianBlur stdDeviation="7.5"/>
<feComposite in2="hardAlpha" operator="out"/>
<feColorMatrix type="matrix" values="0 0 0 0 0 0 0 0 0 0 0 0 0 0 0 0 0 0 0.25 0"/>
<feBlend mode="normal" in2="BackgroundImageFix" result="effect1_dropShadow_189_157"/>
<feBlend mode="normal" in="SourceGraphic" in2="effect1_dropShadow_189_157" result="shape"/>
</filter>
<filter id="filter2_i_189_157" x="598.914" y="342.609" width="26.9844" height="37.5604" filterUnits="userSpaceOnUse" color-interpolation-filters="sRGB">
<feFlood flood-opacity="0" result="BackgroundImageFix"/>
<feBlend mode="normal" in="SourceGraphic" in2="BackgroundImageFix" result="shape"/>
<feColorMatrix in="SourceAlpha" type="matrix" values="0 0 0 0 0 0 0 0 0 0 0 0 0 0 0 0 0 0 127 0" result="hardAlpha"/>
<feOffset dx="20" dy="-32"/>
<feGaussianBlur stdDeviation="15.95"/>
<feComposite in2="hardAlpha" operator="arithmetic" k2="-1" k3="1"/>
<feColorMatrix type="matrix" values="0 0 0 0 0 0 0 0 0 0 0 0 0 0 0 0 0 0 0.15 0"/>
<feBlend mode="normal" in2="shape" result="effect1_innerShadow_189_157"/>
</filter>
<filter id="filter3_i_189_157" x="534" y="352.5" width="35" height="35" filterUnits="userSpaceOnUse" color-interpolation-filters="sRGB">
<feFlood flood-opacity="0" result="BackgroundImageFix"/>
<feBlend mode="normal" in="SourceGraphic" in2="BackgroundImageFix" result="shape"/>
<feColorMatrix in="SourceAlpha" type="matrix" values="0 0 0 0 0 0 0 0 0 0 0 0 0 0 0 0 0 0 127 0" result="hardAlpha"/>
<feOffset dx="6" dy="-5"/>
<feGaussianBlur stdDeviation="2.5"/>
<feComposite in2="hardAlpha" operator="arithmetic" k2="-1" k3="1"/>
<feColorMatrix type="matrix" values="0 0 0 0 0 0 0 0 0 0 0 0 0 0 0 0 0 0 0.4 0"/>
<feBlend mode="normal" in2="shape" result="effect1_innerShadow_189_157"/>
</filter>
<filter id="filter4_i_189_157" x="658" y="352.5" width="35" height="35" filterUnits="userSpaceOnUse" color-interpolation-filters="sRGB">
<feFlood flood-opacity="0" result="BackgroundImageFix"/>
<feBlend mode="normal" in="SourceGraphic" in2="BackgroundImageFix" result="shape"/>
<feColorMatrix in="SourceAlpha" type="matrix" values="0 0 0 0 0 0 0 0 0 0 0 0 0 0 0 0 0 0 127 0" result="hardAlpha"/>
<feOffset dx="6" dy="-5"/>
<feGaussianBlur stdDeviation="2.5"/>
<feComposite in2="hardAlpha" operator="arithmetic" k2="-1" k3="1"/>
<feColorMatrix type="matrix" values="0 0 0 0 0 0 0 0 0 0 0 0 0 0 0 0 0 0 0.4 0"/>
<feBlend mode="normal" in2="shape" result="effect1_innerShadow_189_157"/>
</filter>
<filter id="filter5_i_189_157" x="504" y="363.5" width="25" height="24" filterUnits="userSpaceOnUse" color-interpolation-filters="sRGB">
<feFlood flood-opacity="0" result="BackgroundImageFix"/>
<feBlend mode="normal" in="SourceGraphic" in2="BackgroundImageFix" result="shape"/>
<feColorMatrix in="SourceAlpha" type="matrix" values="0 0 0 0 0 0 0 0 0 0 0 0 0 0 0 0 0 0 127 0" result="hardAlpha"/>
<feOffset dx="7" dy="-4"/>
<feGaussianBlur stdDeviation="2.5"/>
<feComposite in2="hardAlpha" operator="arithmetic" k2="-1" k3="1"/>
<feColorMatrix type="matrix" values="0 0 0 0 0 0 0 0 0 0 0 0 0 0 0 0 0 0 0.4 0"/>
<feBlend mode="normal" in2="shape" result="effect1_innerShadow_189_157"/>
</filter>
<filter id="filter6_i_189_157" x="698" y="363.5" width="25" height="24" filterUnits="userSpaceOnUse" color-interpolation-filters="sRGB">
<feFlood flood-opacity="0" result="BackgroundImageFix"/>
<feBlend mode="normal" in="SourceGraphic" in2="BackgroundImageFix" result="shape"/>
<feColorMatrix in="SourceAlpha" type="matrix" values="0 0 0 0 0 0 0 0 0 0 0 0 0 0 0 0 0 0 127 0" result="hardAlpha"/>
<feOffset dx="7" dy="-4"/>
<feGaussianBlur stdDeviation="2.5"/>
<feComposite in2="hardAlpha" operator="arithmetic" k2="-1" k3="1"/>
<feColorMatrix type="matrix" values="0 0 0 0 0 0 0 0 0 0 0 0 0 0 0 0 0 0 0.4 0"/>
<feBlend mode="normal" in2="shape" result="effect1_innerShadow_189_157"/>
</filter>
<linearGradient id="paint0_linear_189_157" x1="641.167" y1="744.951" x2="641.167" y2="-1532.81" gradientUnits="userSpaceOnUse">
<stop stop-color="#3C0061"/>
<stop offset="1" stop-color="#FD00A7"/>
</linearGradient>
<linearGradient id="paint1_linear_189_157" x1="649" y1="680" x2="631.5" y2="524.5" gradientUnits="userSpaceOnUse">
<stop stop-color="#25C3CF"/>
<stop offset="1" stop-color="#E36397"/>
</linearGradient>
<linearGradient id="paint2_linear_189_157" x1="616.294" y1="426.605" x2="616" y2="533" gradientUnits="userSpaceOnUse">
<stop stop-color="white"/>
<stop offset="1" stop-opacity="0"/>
</linearGradient>
<linearGradient id="paint3_linear_189_157" x1="405.001" y1="358.5" x2="404.592" y2="732.199" gradientUnits="userSpaceOnUse">
<stop stop-color="#E36397"/>
<stop offset="1" stop-color="#35AFB8"/>
</linearGradient>
<linearGradient id="paint4_linear_189_157" x1="405.001" y1="205.5" x2="405.001" y2="306.5" gradientUnits="userSpaceOnUse">
<stop stop-color="white"/>
<stop offset="1" stop-color="white" stop-opacity="0"/>
</linearGradient>
<radialGradient id="paint5_radial_189_157" cx="0" cy="0" r="1" gradientUnits="userSpaceOnUse" gradientTransform="translate(692.001 820.5) rotate(-96.4074) scale(188.175 439.679)">
<stop stop-color="#36BCCA"/>
<stop offset="1" stop-color="#E36397"/>
</radialGradient>
<linearGradient id="paint6_linear_189_157" x1="414" y1="763.5" x2="591" y2="736.5" gradientUnits="userSpaceOnUse">
<stop stop-color="#35AFB8"/>
<stop offset="1" stop-color="#D38EAA"/>
</linearGradient>
<linearGradient id="paint7_linear_189_157" x1="694" y1="487.5" x2="694" y2="600.5" gradientUnits="userSpaceOnUse">
<stop stop-color="#419EA5"/>
<stop offset="1" stop-color="#D38EAA"/>
</linearGradient>
<linearGradient id="paint8_linear_189_157" x1="718.246" y1="499.966" x2="690.817" y2="521.871" gradientUnits="userSpaceOnUse">
<stop stop-color="white"/>
<stop offset="1" stop-color="white" stop-opacity="0"/>
</linearGradient>
<linearGradient id="paint9_linear_189_157" x1="567.261" y1="316.717" x2="610.5" y2="402.065" gradientUnits="userSpaceOnUse">
<stop stop-color="#31E1EE"/>
<stop offset="1" stop-color="#E34686"/>
</linearGradient>
<linearGradient id="paint10_linear_189_157" x1="549" y1="357.5" x2="549" y2="387.5" gradientUnits="userSpaceOnUse">
<stop stop-color="#FF408D"/>
<stop offset="1" stop-color="#FF408D" stop-opacity="0"/>
</linearGradient>
<linearGradient id="paint11_linear_189_157" x1="673" y1="357.5" x2="673" y2="387.5" gradientUnits="userSpaceOnUse">
<stop stop-color="#FF408D"/>
<stop offset="1" stop-color="#FF408D" stop-opacity="0"/>
</linearGradient>
<linearGradient id="paint12_linear_189_157" x1="514" y1="367.5" x2="514" y2="387.5" gradientUnits="userSpaceOnUse">
<stop stop-color="#FF408D"/>
<stop offset="1" stop-color="#FF408D" stop-opacity="0"/>
</linearGradient>
<linearGradient id="paint13_linear_189_157" x1="708" y1="367.5" x2="708" y2="387.5" gradientUnits="userSpaceOnUse">
<stop stop-color="#FF408D"/>
<stop offset="1" stop-color="#FF408D" stop-opacity="0"/>
</linearGradient>
</defs>
</svg>
