<svg width="43" height="50" viewBox="0 0 43 50" fill="none" xmlns="http://www.w3.org/2000/svg">
<path d="M20.0873 19.056V25.847C20.0873 26.5724 20.4357 26.6549 21.9011 27.0019L21.9323 27.0093C23.1256 27.2919 23.6464 30.2543 23.5417 31.7983C23.5417 33.7218 21.5005 33.3293 21.5005 31.6021C21.5005 29.597 20.1589 28.5275 19.0667 27.9122C18.0633 27.3468 17.2914 27.2056 16.5937 27.2056C15.8086 27.2056 15.0985 27.2934 14.7094 27.9122C14.2839 28.5888 14.3638 29.3622 15.102 29.8749C16.0159 30.5095 17.1382 30.6922 18.1639 31.3273C18.7241 31.6742 18.9489 32.6619 19.263 33.4078C19.5378 37.0192 22.508 37.8305 23.5417 37.8828C29.1001 37.8828 29.9402 35.5668 29.9402 31.131C24.7586 31.131 23.6987 28.8935 23.5417 25.847V19.056C23.5417 16.1119 20.0873 16.3082 20.0873 19.056Z" fill="#D64E86"/>
<path d="M5.01335 33.2903C5.01335 35.7083 4.25443 36.9409 3.40392 37.569C3.08988 37.6344 1.70813 38.5739 2.46181 39.2962C4.58156 38.0008 9.52762 37.2157 11.1763 36.9409C12.4953 36.7211 12.1446 34.4548 12.1184 33.2903V7.57857C12.1184 1.45487 7.80042 0.473511 5.01335 0.0417117C2.22628 -0.390088 0.106544 2.63251 1.83374 4.39896C3.87497 4.39896 4.804 6.5187 5.01335 7.57857V33.2903Z" fill="#D64E86"/>
<path d="M10.0391 48.2614C11.0754 47.9788 13.8467 42.3078 15.1029 39.5077C15.8356 40.0572 18.9106 41.1564 25.3483 41.1564C31.786 41.1564 33.1076 36.0794 32.9637 33.541V23.4133C33.7095 22.2357 41.7567 29.1052 42.267 34.9149C42.7773 40.7246 38.6556 45.4744 35.0834 47.8689C29.0382 51.3625 12.7869 48.2614 10.0391 48.2614Z" fill="#D64E86"/>
<g filter="url(#filter0_i_238_157)">
<path d="M0.492361 44.3243C2.21956 40.3989 8.98442 39.5483 12.1509 39.6138C11.6406 41.0662 9.39326 45.0567 7.82308 46.8232C6.50545 48.1408 4.30397 48.7776 3.29644 48.8822C2.03884 48.8822 -1.23484 48.2498 0.492361 44.3243Z" fill="#D64E86"/>
<path d="M0.492361 44.3243C2.21956 40.3989 8.98442 39.5483 12.1509 39.6138C11.6406 41.0662 9.39326 45.0567 7.82308 46.8232C6.50545 48.1408 4.30397 48.7776 3.29644 48.8822C2.03884 48.8822 -1.23484 48.2498 0.492361 44.3243Z" stroke="black"/>
</g>
<rect x="26.1279" y="21.3799" width="3.51448" height="8.27366" rx="1.75724" fill="#D64E86"/>
<defs>
<filter id="filter0_i_238_157" x="0" y="7.71035" width="32.1514" height="41.172" filterUnits="userSpaceOnUse" color-interpolation-filters="sRGB">
<feFlood flood-opacity="0" result="BackgroundImageFix"/>
<feBlend mode="normal" in="SourceGraphic" in2="BackgroundImageFix" result="shape"/>
<feColorMatrix in="SourceAlpha" type="matrix" values="0 0 0 0 0 0 0 0 0 0 0 0 0 0 0 0 0 0 127 0" result="hardAlpha"/>
<feOffset dx="20" dy="-32"/>
<feGaussianBlur stdDeviation="15.95"/>
<feComposite in2="hardAlpha" operator="arithmetic" k2="-1" k3="1"/>
<feColorMatrix type="matrix" values="0 0 0 0 0 0 0 0 0 0 0 0 0 0 0 0 0 0 0.15 0"/>
<feBlend mode="normal" in2="shape" result="effect1_innerShadow_238_157"/>
</filter>
</defs>
</svg>
