<svg width="64" height="64" viewBox="0 0 64 64" fill="none" xmlns="http://www.w3.org/2000/svg">
<rect width="64" height="64" rx="32" fill="black"/>
<path d="M33.0873 26.056V32.847C33.0873 33.5724 33.4357 33.6549 34.9011 34.0019L34.9323 34.0093C36.1256 34.2919 36.6464 37.2543 36.5417 38.7983C36.5417 40.7218 34.5005 40.3293 34.5005 38.6021C34.5005 36.597 33.1589 35.5275 32.0667 34.9122C31.0633 34.3468 30.2914 34.2056 29.5937 34.2056C28.8086 34.2056 28.0985 34.2934 27.7094 34.9122C27.2839 35.5888 27.3638 36.3622 28.102 36.8749C29.0159 37.5095 30.1382 37.6922 31.1639 38.3273C31.7241 38.6742 31.9489 39.6619 32.263 40.4078C32.5378 44.0192 35.508 44.8305 36.5417 44.8828C42.1001 44.8828 42.9402 42.5668 42.9402 38.131C37.7586 38.131 36.6987 35.8935 36.5417 32.847V26.056C36.5417 23.1119 33.0873 23.3082 33.0873 26.056Z" fill="#D64E86"/>
<path d="M18.0134 40.2903C18.0134 42.7083 17.2544 43.9409 16.4039 44.569C16.0899 44.6344 14.7081 45.5739 15.4618 46.2962C17.5816 45.0008 22.5276 44.2157 24.1763 43.9409C25.4953 43.7211 25.1446 41.4548 25.1184 40.2903V14.5786C25.1184 8.45487 20.8004 7.47351 18.0134 7.04171C15.2263 6.60991 13.1065 9.63251 14.8337 11.399C16.875 11.399 17.804 13.5187 18.0134 14.5786V40.2903Z" fill="#D64E86"/>
<path d="M23.0391 55.2614C24.0754 54.9788 26.8467 49.3078 28.1029 46.5077C28.8356 47.0572 31.9106 48.1564 38.3483 48.1564C44.786 48.1564 46.1076 43.0794 45.9637 40.541V30.4133C46.7095 29.2357 54.7567 36.1052 55.267 41.9149C55.7773 47.7246 51.6556 52.4744 48.0834 54.8689C42.0382 58.3625 25.7869 55.2614 23.0391 55.2614Z" fill="#D64E86"/>
<g filter="url(#filter0_i_238_163)">
<path d="M13.4924 51.3243C15.2196 47.3989 21.9844 46.5483 25.1509 46.6138C24.6406 48.0662 22.3933 52.0567 20.8231 53.8232C19.5054 55.1408 17.304 55.7776 16.2964 55.8822C15.0388 55.8822 11.7652 55.2498 13.4924 51.3243Z" fill="#D64E86"/>
<path d="M13.4924 51.3243C15.2196 47.3989 21.9844 46.5483 25.1509 46.6138C24.6406 48.0662 22.3933 52.0567 20.8231 53.8232C19.5054 55.1408 17.304 55.7776 16.2964 55.8822C15.0388 55.8822 11.7652 55.2498 13.4924 51.3243Z" stroke="black"/>
</g>
<rect x="39.1279" y="28.3799" width="3.51448" height="8.27366" rx="1.75724" fill="#D64E86"/>
<defs>
<filter id="filter0_i_238_163" x="13" y="14.7104" width="32.1514" height="41.172" filterUnits="userSpaceOnUse" color-interpolation-filters="sRGB">
<feFlood flood-opacity="0" result="BackgroundImageFix"/>
<feBlend mode="normal" in="SourceGraphic" in2="BackgroundImageFix" result="shape"/>
<feColorMatrix in="SourceAlpha" type="matrix" values="0 0 0 0 0 0 0 0 0 0 0 0 0 0 0 0 0 0 127 0" result="hardAlpha"/>
<feOffset dx="20" dy="-32"/>
<feGaussianBlur stdDeviation="15.95"/>
<feComposite in2="hardAlpha" operator="arithmetic" k2="-1" k3="1"/>
<feColorMatrix type="matrix" values="0 0 0 0 0 0 0 0 0 0 0 0 0 0 0 0 0 0 0.15 0"/>
<feBlend mode="normal" in2="shape" result="effect1_innerShadow_238_163"/>
</filter>
</defs>
</svg>
