<svg width="1205" height="1205" viewBox="0 0 1205 1205" fill="none" xmlns="http://www.w3.org/2000/svg">
<g clip-path="url(#clip0_72_2)">
<path d="M577.112 477.528V626.322C577.112 642.214 584.745 644.021 616.852 651.625L617.536 651.787C643.682 657.98 655.093 722.887 652.799 756.716C652.799 798.86 608.075 790.259 608.075 752.416C608.075 708.483 578.681 685.052 554.75 671.569C532.766 659.182 515.852 656.087 500.565 656.087C483.364 656.087 467.807 658.013 459.282 671.569C449.958 686.395 451.708 703.34 467.883 714.573C487.907 728.478 512.497 732.48 534.969 746.396C547.244 753.997 552.17 775.638 559.051 791.98C565.071 871.107 630.15 888.882 652.799 890.028C774.586 890.028 792.992 839.284 792.992 742.095C679.462 742.095 656.239 693.071 652.799 626.322V477.528C652.799 413.022 577.112 417.322 577.112 477.528Z" fill="url(#paint0_linear_72_2)"/>
<path d="M577.112 477.528V626.322C577.112 642.214 584.745 644.021 616.852 651.625L617.536 651.787C643.682 657.98 655.093 722.887 652.799 756.716C652.799 798.86 608.075 790.259 608.075 752.416C608.075 708.483 578.681 685.052 554.75 671.569C532.766 659.182 515.852 656.087 500.565 656.087C483.364 656.087 467.807 658.013 459.282 671.569C449.958 686.395 451.708 703.34 467.883 714.573C487.907 728.478 512.497 732.48 534.969 746.396C547.244 753.997 552.17 775.638 559.051 791.98C565.071 871.107 630.15 888.882 652.799 890.028C774.586 890.028 792.992 839.284 792.992 742.095C679.462 742.095 656.239 693.071 652.799 626.322V477.528C652.799 413.022 577.112 417.322 577.112 477.528Z" fill="url(#paint1_linear_72_2)" fill-opacity="0.81"/>
<path d="M577.112 477.528V626.322C577.112 642.214 584.745 644.021 616.852 651.625L617.536 651.787C643.682 657.98 655.093 722.887 652.799 756.716C652.799 798.86 608.075 790.259 608.075 752.416C608.075 708.483 578.681 685.052 554.75 671.569C532.766 659.182 515.852 656.087 500.565 656.087C483.364 656.087 467.807 658.013 459.282 671.569C449.958 686.395 451.708 703.34 467.883 714.573C487.907 728.478 512.497 732.48 534.969 746.396C547.244 753.997 552.17 775.638 559.051 791.98C565.071 871.107 630.15 888.882 652.799 890.028C774.586 890.028 792.992 839.284 792.992 742.095C679.462 742.095 656.239 693.071 652.799 626.322V477.528C652.799 413.022 577.112 417.322 577.112 477.528Z" stroke="black"/>
<path d="M246.843 789.4C246.843 842.38 230.215 869.387 211.58 883.148C204.699 884.581 174.425 905.166 190.938 920.991C237.382 892.609 345.752 875.407 381.875 869.387C410.774 864.57 403.091 814.915 402.517 789.4V226.049C402.517 91.8767 307.909 70.3748 246.843 60.9139C185.778 51.4531 139.334 117.679 177.177 156.383C221.901 156.383 242.256 202.827 246.843 226.049V789.4Z" fill="url(#paint2_linear_72_2)"/>
<path d="M246.843 789.4C246.843 842.38 230.215 869.387 211.58 883.148C204.699 884.581 174.425 905.166 190.938 920.991C237.382 892.609 345.752 875.407 381.875 869.387C410.774 864.57 403.091 814.915 402.517 789.4V226.049C402.517 91.8767 307.909 70.3748 246.843 60.9139C185.778 51.4531 139.334 117.679 177.177 156.383C221.901 156.383 242.256 202.827 246.843 226.049V789.4Z" fill="url(#paint3_linear_72_2)" fill-opacity="0.28"/>
<path d="M246.843 789.4C246.843 842.38 230.215 869.387 211.58 883.148C204.699 884.581 174.425 905.166 190.938 920.991C237.382 892.609 345.752 875.407 381.875 869.387C410.774 864.57 403.091 814.915 402.517 789.4V226.049C402.517 91.8767 307.909 70.3748 246.843 60.9139C185.778 51.4531 139.334 117.679 177.177 156.383C221.901 156.383 242.256 202.827 246.843 226.049V789.4Z" stroke="black"/>
<path d="M356.933 1117.42C379.639 1111.23 440.36 986.979 467.883 925.627C483.938 937.668 551.31 961.75 692.363 961.75C833.416 961.75 862.372 850.513 859.218 794.895V572.995C875.559 547.193 1051.88 697.706 1063.06 824.998C1074.24 952.289 983.929 1056.36 905.662 1108.82C773.21 1185.37 417.138 1117.42 356.933 1117.42Z" fill="url(#paint4_radial_72_2)"/>
<g filter="url(#filter0_i_72_2)">
<path d="M147.788 1031.16C185.631 945.148 333.851 926.513 403.231 927.947C392.05 959.77 342.809 1047.2 308.406 1085.91C279.536 1114.78 231.301 1128.73 209.226 1131.02C181.672 1131.02 109.944 1117.16 147.788 1031.16Z" fill="url(#paint5_linear_72_2)"/>
<path d="M147.788 1031.16C185.631 945.148 333.851 926.513 403.231 927.947C392.05 959.77 342.809 1047.2 308.406 1085.91C279.536 1114.78 231.301 1128.73 209.226 1131.02C181.672 1131.02 109.944 1117.16 147.788 1031.16Z" stroke="black"/>
</g>
<rect x="709.464" y="528.436" width="77.0032" height="181.278" rx="23" fill="url(#paint6_linear_72_2)"/>
<rect x="709.464" y="528.436" width="77.0032" height="181.278" rx="23" fill="url(#paint7_linear_72_2)" fill-opacity="0.74"/>
<g filter="url(#filter1_d_72_2)">
<path d="M541.02 310.553L558.899 277.521L587.285 265.342H640.002L668.757 277.521L687.005 310.553L668.757 318.672L657.329 305.57V391.379H571.986V305.57L560.374 318.672L541.02 310.553Z" fill="url(#paint8_linear_72_2)"/>
<path d="M588.17 265.342C592.164 271.985 603.174 285.272 615.266 285.272C627.358 285.272 637.385 271.985 640.887 265.342" stroke="#650667" stroke-width="2"/>
</g>
<path d="M615.468 327.935V333.542C615.468 334.141 615.755 334.209 616.965 334.496L616.991 334.502C617.976 334.735 618.406 337.181 618.32 338.456C618.32 340.044 616.635 339.72 616.635 338.294C616.635 336.638 615.527 335.755 614.625 335.247C613.797 334.78 613.159 334.664 612.583 334.664C611.935 334.664 611.349 334.736 611.027 335.247C610.676 335.806 610.742 336.444 611.351 336.868C612.106 337.392 613.033 337.542 613.88 338.067C614.342 338.353 614.528 339.169 614.787 339.785C615.014 342.767 617.466 343.436 618.32 343.48C622.909 343.48 623.603 341.567 623.603 337.905C619.325 337.905 618.45 336.057 618.32 333.542V327.935C618.32 325.504 615.468 325.666 615.468 327.935Z" fill="#863E83"/>
<path d="M603.022 339.687C603.022 341.684 602.395 342.702 601.693 343.22C601.434 343.274 600.293 344.05 600.915 344.646C602.665 343.577 606.749 342.929 608.11 342.702C609.199 342.52 608.91 340.649 608.888 339.687V318.458C608.888 313.402 605.323 312.591 603.022 312.235C600.721 311.878 598.97 314.374 600.396 315.833C602.082 315.833 602.849 317.583 603.022 318.458V339.687Z" fill="#863E83"/>
<path d="M607.17 352.049C608.026 351.815 610.314 347.133 611.351 344.821C611.956 345.275 614.495 346.182 619.811 346.182C625.126 346.182 626.218 341.99 626.099 339.895V331.532C626.715 330.56 633.359 336.232 633.78 341.029C634.202 345.826 630.798 349.748 627.849 351.725C622.858 354.609 609.439 352.049 607.17 352.049Z" fill="#863E83"/>
<g filter="url(#filter2_i_72_2)">
<path d="M599.289 348.798C600.715 345.557 606.301 344.854 608.915 344.909C608.494 346.108 606.97 349.446 605.674 350.905C604.896 352.227 602.746 352.957 601.914 353.044C600.445 352.925 597.863 352.039 599.289 348.798Z" fill="#863E83"/>
<path d="M599.289 348.798C600.715 345.557 606.301 344.854 608.915 344.909C608.494 346.108 606.97 349.446 605.674 350.905C604.896 352.227 602.746 352.957 601.914 353.044C600.445 352.925 597.863 352.039 599.289 348.798Z" stroke="black"/>
</g>
<rect x="620.455" y="329.853" width="2.90182" height="6.83136" rx="1.45091" fill="#863E83"/>
<g filter="url(#filter3_i_72_2)">
<circle cx="515.301" cy="344.344" r="24.231" fill="url(#paint9_linear_72_2)"/>
</g>
<g filter="url(#filter4_i_72_2)">
<ellipse cx="714.589" cy="344.344" rx="23.7365" ry="24.231" fill="url(#paint10_linear_72_2)"/>
</g>
<g filter="url(#filter5_i_72_2)">
<ellipse cx="458.927" cy="352.75" rx="15.3298" ry="15.8243" fill="url(#paint11_linear_72_2)"/>
</g>
<g filter="url(#filter6_i_72_2)">
<ellipse cx="770.468" cy="352.75" rx="15.3298" ry="15.8243" fill="url(#paint12_linear_72_2)"/>
</g>
</g>
<defs>
<filter id="filter0_i_72_2" x="137" y="895.972" width="286.231" height="235.05" filterUnits="userSpaceOnUse" color-interpolation-filters="sRGB">
<feFlood flood-opacity="0" result="BackgroundImageFix"/>
<feBlend mode="normal" in="SourceGraphic" in2="BackgroundImageFix" result="shape"/>
<feColorMatrix in="SourceAlpha" type="matrix" values="0 0 0 0 0 0 0 0 0 0 0 0 0 0 0 0 0 0 127 0" result="hardAlpha"/>
<feOffset dx="20" dy="-32"/>
<feGaussianBlur stdDeviation="15.95"/>
<feComposite in2="hardAlpha" operator="arithmetic" k2="-1" k3="1"/>
<feColorMatrix type="matrix" values="0 0 0 0 0 0 0 0 0 0 0 0 0 0 0 0 0 0 0.15 0"/>
<feBlend mode="normal" in2="shape" result="effect1_innerShadow_72_2"/>
</filter>
<filter id="filter1_d_72_2" x="526.02" y="255.827" width="175.985" height="156.552" filterUnits="userSpaceOnUse" color-interpolation-filters="sRGB">
<feFlood flood-opacity="0" result="BackgroundImageFix"/>
<feColorMatrix in="SourceAlpha" type="matrix" values="0 0 0 0 0 0 0 0 0 0 0 0 0 0 0 0 0 0 127 0" result="hardAlpha"/>
<feOffset dy="6"/>
<feGaussianBlur stdDeviation="7.5"/>
<feComposite in2="hardAlpha" operator="out"/>
<feColorMatrix type="matrix" values="0 0 0 0 0 0 0 0 0 0 0 0 0 0 0 0 0 0 0.25 0"/>
<feBlend mode="normal" in2="BackgroundImageFix" result="effect1_dropShadow_72_2"/>
<feBlend mode="normal" in="SourceGraphic" in2="effect1_dropShadow_72_2" result="shape"/>
</filter>
<filter id="filter2_i_72_2" x="598.873" y="313.006" width="30.042" height="40.0381" filterUnits="userSpaceOnUse" color-interpolation-filters="sRGB">
<feFlood flood-opacity="0" result="BackgroundImageFix"/>
<feBlend mode="normal" in="SourceGraphic" in2="BackgroundImageFix" result="shape"/>
<feColorMatrix in="SourceAlpha" type="matrix" values="0 0 0 0 0 0 0 0 0 0 0 0 0 0 0 0 0 0 127 0" result="hardAlpha"/>
<feOffset dx="20" dy="-32"/>
<feGaussianBlur stdDeviation="15.95"/>
<feComposite in2="hardAlpha" operator="arithmetic" k2="-1" k3="1"/>
<feColorMatrix type="matrix" values="0 0 0 0 0 0 0 0 0 0 0 0 0 0 0 0 0 0 0.15 0"/>
<feBlend mode="normal" in2="shape" result="effect1_innerShadow_72_2"/>
</filter>
<filter id="filter3_i_72_2" x="491.07" y="315.113" width="53.4621" height="53.4621" filterUnits="userSpaceOnUse" color-interpolation-filters="sRGB">
<feFlood flood-opacity="0" result="BackgroundImageFix"/>
<feBlend mode="normal" in="SourceGraphic" in2="BackgroundImageFix" result="shape"/>
<feColorMatrix in="SourceAlpha" type="matrix" values="0 0 0 0 0 0 0 0 0 0 0 0 0 0 0 0 0 0 127 0" result="hardAlpha"/>
<feOffset dx="6" dy="-5"/>
<feGaussianBlur stdDeviation="2.5"/>
<feComposite in2="hardAlpha" operator="arithmetic" k2="-1" k3="1"/>
<feColorMatrix type="matrix" values="0 0 0 0 0 0 0 0 0 0 0 0 0 0 0 0 0 0 0.4 0"/>
<feBlend mode="normal" in2="shape" result="effect1_innerShadow_72_2"/>
</filter>
<filter id="filter4_i_72_2" x="690.852" y="315.113" width="52.473" height="53.4621" filterUnits="userSpaceOnUse" color-interpolation-filters="sRGB">
<feFlood flood-opacity="0" result="BackgroundImageFix"/>
<feBlend mode="normal" in="SourceGraphic" in2="BackgroundImageFix" result="shape"/>
<feColorMatrix in="SourceAlpha" type="matrix" values="0 0 0 0 0 0 0 0 0 0 0 0 0 0 0 0 0 0 127 0" result="hardAlpha"/>
<feOffset dx="6" dy="-5"/>
<feGaussianBlur stdDeviation="2.5"/>
<feComposite in2="hardAlpha" operator="arithmetic" k2="-1" k3="1"/>
<feColorMatrix type="matrix" values="0 0 0 0 0 0 0 0 0 0 0 0 0 0 0 0 0 0 0.4 0"/>
<feBlend mode="normal" in2="shape" result="effect1_innerShadow_72_2"/>
</filter>
<filter id="filter5_i_72_2" x="443.597" y="332.926" width="35.6597" height="35.6487" filterUnits="userSpaceOnUse" color-interpolation-filters="sRGB">
<feFlood flood-opacity="0" result="BackgroundImageFix"/>
<feBlend mode="normal" in="SourceGraphic" in2="BackgroundImageFix" result="shape"/>
<feColorMatrix in="SourceAlpha" type="matrix" values="0 0 0 0 0 0 0 0 0 0 0 0 0 0 0 0 0 0 127 0" result="hardAlpha"/>
<feOffset dx="7" dy="-4"/>
<feGaussianBlur stdDeviation="2.5"/>
<feComposite in2="hardAlpha" operator="arithmetic" k2="-1" k3="1"/>
<feColorMatrix type="matrix" values="0 0 0 0 0 0 0 0 0 0 0 0 0 0 0 0 0 0 0.4 0"/>
<feBlend mode="normal" in2="shape" result="effect1_innerShadow_72_2"/>
</filter>
<filter id="filter6_i_72_2" x="755.138" y="332.926" width="35.6597" height="35.6487" filterUnits="userSpaceOnUse" color-interpolation-filters="sRGB">
<feFlood flood-opacity="0" result="BackgroundImageFix"/>
<feBlend mode="normal" in="SourceGraphic" in2="BackgroundImageFix" result="shape"/>
<feColorMatrix in="SourceAlpha" type="matrix" values="0 0 0 0 0 0 0 0 0 0 0 0 0 0 0 0 0 0 127 0" result="hardAlpha"/>
<feOffset dx="7" dy="-4"/>
<feGaussianBlur stdDeviation="2.5"/>
<feComposite in2="hardAlpha" operator="arithmetic" k2="-1" k3="1"/>
<feColorMatrix type="matrix" values="0 0 0 0 0 0 0 0 0 0 0 0 0 0 0 0 0 0 0.4 0"/>
<feBlend mode="normal" in2="shape" result="effect1_innerShadow_72_2"/>
</filter>
<linearGradient id="paint0_linear_72_2" x1="675.776" y1="837.251" x2="647.701" y2="587.793" gradientUnits="userSpaceOnUse">
<stop stop-color="#25C3CF"/>
<stop offset="1" stop-color="#E36397"/>
</linearGradient>
<linearGradient id="paint1_linear_72_2" x1="623.307" y1="430.747" x2="622.836" y2="601.429" gradientUnits="userSpaceOnUse">
<stop stop-color="white"/>
<stop offset="1" stop-opacity="0"/>
</linearGradient>
<linearGradient id="paint2_linear_72_2" x1="284.342" y1="321.49" x2="283.686" y2="920.991" gradientUnits="userSpaceOnUse">
<stop stop-color="#E36397"/>
<stop offset="1" stop-color="#35AFB8"/>
</linearGradient>
<linearGradient id="paint3_linear_72_2" x1="284.342" y1="76.0423" x2="284.342" y2="238.07" gradientUnits="userSpaceOnUse">
<stop stop-color="white"/>
<stop offset="1" stop-color="white" stop-opacity="0"/>
</linearGradient>
<radialGradient id="paint4_radial_72_2" cx="0" cy="0" r="1" gradientUnits="userSpaceOnUse" gradientTransform="translate(744.758 1062.65) rotate(-96.4074) scale(301.877 705.348)">
<stop stop-color="#36BCCA"/>
<stop offset="1" stop-color="#E36397"/>
</radialGradient>
<linearGradient id="paint5_linear_72_2" x1="298.781" y1="971.205" x2="582.73" y2="927.89" gradientUnits="userSpaceOnUse">
<stop stop-color="#35AFB8"/>
<stop offset="1" stop-color="#D38EAA"/>
</linearGradient>
<linearGradient id="paint6_linear_72_2" x1="747.966" y1="528.436" x2="747.966" y2="709.715" gradientUnits="userSpaceOnUse">
<stop stop-color="#419EA5"/>
<stop offset="1" stop-color="#D38EAA"/>
</linearGradient>
<linearGradient id="paint7_linear_72_2" x1="786.862" y1="548.435" x2="742.86" y2="583.575" gradientUnits="userSpaceOnUse">
<stop stop-color="white"/>
<stop offset="1" stop-color="white" stop-opacity="0"/>
</linearGradient>
<linearGradient id="paint8_linear_72_2" x1="544.647" y1="254.461" x2="614.013" y2="391.379" gradientUnits="userSpaceOnUse">
<stop stop-color="#31E1EE"/>
<stop offset="1" stop-color="#E34686"/>
</linearGradient>
<linearGradient id="paint9_linear_72_2" x1="515.301" y1="320.113" x2="515.301" y2="368.575" gradientUnits="userSpaceOnUse">
<stop stop-color="#FF408D"/>
<stop offset="1" stop-color="#FF408D" stop-opacity="0"/>
</linearGradient>
<linearGradient id="paint10_linear_72_2" x1="714.589" y1="320.113" x2="714.589" y2="368.575" gradientUnits="userSpaceOnUse">
<stop stop-color="#FF408D"/>
<stop offset="1" stop-color="#FF408D" stop-opacity="0"/>
</linearGradient>
<linearGradient id="paint11_linear_72_2" x1="458.927" y1="336.926" x2="458.927" y2="368.575" gradientUnits="userSpaceOnUse">
<stop stop-color="#FF408D"/>
<stop offset="1" stop-color="#FF408D" stop-opacity="0"/>
</linearGradient>
<linearGradient id="paint12_linear_72_2" x1="770.468" y1="336.926" x2="770.468" y2="368.575" gradientUnits="userSpaceOnUse">
<stop stop-color="#FF408D"/>
<stop offset="1" stop-color="#FF408D" stop-opacity="0"/>
</linearGradient>
<clipPath id="clip0_72_2">
<rect width="1205" height="1205" fill="white"/>
</clipPath>
</defs>
</svg>
