<svg width="100" height="100" viewBox="0 0 100 100" fill="none" xmlns="http://www.w3.org/2000/svg">
<circle cx="50" cy="50" r="50" fill="url(#paint0_linear_177_53)"/>
<path d="M48.8562 37.9016V45.6148C48.8562 46.4386 49.2519 46.5323 50.9163 46.9264L50.9517 46.9348C52.307 47.2558 52.8985 50.6205 52.7797 52.3741C52.7797 54.5588 50.4612 54.1129 50.4612 52.1512C50.4612 49.8739 48.9375 48.6592 47.697 47.9603C46.5574 47.3182 45.6806 47.1577 44.8882 47.1577C43.9965 47.1577 43.19 47.2576 42.7481 47.9603C42.2648 48.7288 42.3555 49.6072 43.194 50.1895C44.232 50.9104 45.5067 51.1178 46.6716 51.8391C47.3079 52.2332 47.5633 53.355 47.9199 54.2021C48.232 58.3039 51.6056 59.2253 52.7797 59.2848C59.0928 59.2848 60.0469 56.6543 60.0469 51.6162C54.1618 51.6162 52.958 49.0749 52.7797 45.6148V37.9016C52.7797 34.5578 48.8562 34.7807 48.8562 37.9016Z" fill="url(#paint1_linear_177_53)"/>
<path d="M48.8562 37.9016V45.6148C48.8562 46.4386 49.2519 46.5323 50.9163 46.9264L50.9517 46.9348C52.307 47.2558 52.8985 50.6205 52.7797 52.3741C52.7797 54.5588 50.4612 54.1129 50.4612 52.1512C50.4612 49.8739 48.9375 48.6592 47.697 47.9603C46.5574 47.3182 45.6806 47.1577 44.8882 47.1577C43.9965 47.1577 43.19 47.2576 42.7481 47.9603C42.2648 48.7288 42.3555 49.6072 43.194 50.1895C44.232 50.9104 45.5067 51.1178 46.6716 51.8391C47.3079 52.2332 47.5633 53.355 47.9199 54.2021C48.232 58.3039 51.6056 59.2253 52.7797 59.2848C59.0928 59.2848 60.0469 56.6543 60.0469 51.6162C54.1618 51.6162 52.958 49.0749 52.7797 45.6148V37.9016C52.7797 34.5578 48.8562 34.7807 48.8562 37.9016Z" fill="url(#paint2_linear_177_53)" fill-opacity="0.81"/>
<path d="M48.8562 37.9016V45.6148C48.8562 46.4386 49.2519 46.5323 50.9163 46.9264L50.9517 46.9348C52.307 47.2558 52.8985 50.6205 52.7797 52.3741C52.7797 54.5588 50.4612 54.1129 50.4612 52.1512C50.4612 49.8739 48.9375 48.6592 47.697 47.9603C46.5574 47.3182 45.6806 47.1577 44.8882 47.1577C43.9965 47.1577 43.19 47.2576 42.7481 47.9603C42.2648 48.7288 42.3555 49.6072 43.194 50.1895C44.232 50.9104 45.5067 51.1178 46.6716 51.8391C47.3079 52.2332 47.5633 53.355 47.9199 54.2021C48.232 58.3039 51.6056 59.2253 52.7797 59.2848C59.0928 59.2848 60.0469 56.6543 60.0469 51.6162C54.1618 51.6162 52.958 49.0749 52.7797 45.6148V37.9016C52.7797 34.5578 48.8562 34.7807 48.8562 37.9016Z" stroke="black"/>
<path d="M31.7357 54.0684C31.7357 56.8148 30.8737 58.2147 29.9077 58.9281C29.551 59.0024 27.9816 60.0695 28.8377 60.8898C31.2452 59.4185 36.8629 58.5268 38.7354 58.2147C40.2335 57.9651 39.8352 55.391 39.8055 54.0684V24.8655C39.8055 17.9103 34.9012 16.7956 31.7357 16.3052C28.5702 15.8148 26.1626 19.2478 28.1243 21.2541C30.4427 21.2541 31.4979 23.6617 31.7357 24.8655V54.0684Z" fill="url(#paint3_linear_177_53)"/>
<path d="M31.7357 54.0684C31.7357 56.8148 30.8737 58.2147 29.9077 58.9281C29.551 59.0024 27.9816 60.0695 28.8377 60.8898C31.2452 59.4185 36.8629 58.5268 38.7354 58.2147C40.2335 57.9651 39.8352 55.391 39.8055 54.0684V24.8655C39.8055 17.9103 34.9012 16.7956 31.7357 16.3052C28.5702 15.8148 26.1626 19.2478 28.1243 21.2541C30.4427 21.2541 31.4979 23.6617 31.7357 24.8655V54.0684Z" fill="url(#paint4_linear_177_53)" fill-opacity="0.9"/>
<path d="M31.7357 54.0684C31.7357 56.8148 30.8737 58.2147 29.9077 58.9281C29.551 59.0024 27.9816 60.0695 28.8377 60.8898C31.2452 59.4185 36.8629 58.5268 38.7354 58.2147C40.2335 57.9651 39.8352 55.391 39.8055 54.0684V24.8655C39.8055 17.9103 34.9012 16.7956 31.7357 16.3052C28.5702 15.8148 26.1626 19.2478 28.1243 21.2541C30.4427 21.2541 31.4979 23.6617 31.7357 24.8655V54.0684Z" stroke="black"/>
<path d="M37.4426 71.0725C38.6196 70.7515 41.7673 64.3105 43.194 61.1301C44.0262 61.7543 47.5187 63.0027 54.8306 63.0027C62.1424 63.0027 63.6434 57.2364 63.48 54.3532V42.8504C64.3271 41.5129 73.4669 49.3152 74.0465 55.9137C74.6261 62.5122 69.9447 67.907 65.8875 70.6266C59.0215 74.5947 40.5635 71.0725 37.4426 71.0725Z" fill="url(#paint5_radial_177_53)"/>
<g filter="url(#filter0_i_177_53)">
<path d="M26.6009 66.6005C28.5626 62.142 36.246 61.176 39.8425 61.2504C39.2629 62.9 36.7104 67.4324 34.927 69.4387C33.4305 70.9353 30.9301 71.6584 29.7857 71.7773C28.3574 71.7773 24.6392 71.059 26.6009 66.6005Z" fill="url(#paint6_linear_177_53)"/>
<path d="M26.6009 66.6005C28.5626 62.142 36.246 61.176 39.8425 61.2504C39.2629 62.9 36.7104 67.4324 34.927 69.4387C33.4305 70.9353 30.9301 71.6584 29.7857 71.7773C28.3574 71.7773 24.6392 71.059 26.6009 66.6005Z" stroke="black"/>
</g>
<rect x="55.717" y="40.5406" width="3.99168" height="9.39709" rx="1.99584" fill="url(#paint7_linear_177_53)"/>
<rect x="55.717" y="40.5406" width="3.99168" height="9.39709" rx="1.99584" fill="url(#paint8_linear_177_53)" fill-opacity="0.74"/>
<path d="M28.3542 83.5395C28.2162 83.5395 28.0962 83.4885 27.9942 83.3865C27.8982 83.2845 27.8502 83.1645 27.8502 83.0265V77.4825C27.8502 77.3445 27.8982 77.2245 27.9942 77.1225C28.0962 77.0205 28.2162 76.9695 28.3542 76.9695H28.6422C28.7802 76.9695 28.9002 77.0205 29.0022 77.1225C29.1042 77.2245 29.1552 77.3445 29.1552 77.4825V82.4145C29.1552 82.4685 29.1792 82.4955 29.2272 82.4955H31.5402C31.6782 82.4955 31.7952 82.5465 31.8912 82.6485C31.9932 82.7445 32.0442 82.8615 32.0442 82.9995V83.0265C32.0442 83.1645 31.9932 83.2845 31.8912 83.3865C31.7952 83.4885 31.6782 83.5395 31.5402 83.5395H28.3542ZM38.0097 81.1995C38.0097 82.8195 37.1997 83.6295 35.5797 83.6295C33.9597 83.6295 33.1497 82.8195 33.1497 81.1995V77.4825C33.1497 77.3445 33.2007 77.2245 33.3027 77.1225C33.4047 77.0205 33.5247 76.9695 33.6627 76.9695H33.9147C34.0527 76.9695 34.1727 77.0205 34.2747 77.1225C34.3767 77.2245 34.4277 77.3445 34.4277 77.4825V81.2715C34.4277 81.7395 34.5207 82.0785 34.7067 82.2885C34.8987 82.4925 35.1957 82.5945 35.5977 82.5945C35.9997 82.5945 36.2937 82.4925 36.4797 82.2885C36.6717 82.0785 36.7677 81.7395 36.7677 81.2715V77.4825C36.7677 77.3445 36.8187 77.2245 36.9207 77.1225C37.0227 77.0205 37.1427 76.9695 37.2807 76.9695H37.4967C37.6347 76.9695 37.7547 77.0205 37.8567 77.1225C37.9587 77.2245 38.0097 77.3445 38.0097 77.4825V81.1995ZM39.7744 83.5395C39.6604 83.5395 39.5734 83.4915 39.5134 83.3955C39.4534 83.2935 39.4504 83.1915 39.5044 83.0895L41.0074 80.2815C41.0314 80.2455 41.0314 80.2005 41.0074 80.1465L39.5494 77.4195C39.4954 77.3175 39.4984 77.2185 39.5584 77.1225C39.6184 77.0205 39.7054 76.9695 39.8194 76.9695H40.2064C40.3624 76.9695 40.5064 77.0115 40.6384 77.0955C40.7704 77.1795 40.8694 77.2905 40.9354 77.4285L41.8804 79.4175C41.8804 79.4235 41.8834 79.4265 41.8894 79.4265C41.8954 79.4265 41.8984 79.4235 41.8984 79.4175L42.8434 77.4285C42.9094 77.2905 43.0084 77.1795 43.1404 77.0955C43.2724 77.0115 43.4164 76.9695 43.5724 76.9695H43.9234C44.0434 76.9695 44.1304 77.0205 44.1844 77.1225C44.2444 77.2185 44.2474 77.3175 44.1934 77.4195L42.7354 80.1465C42.7174 80.1885 42.7174 80.2335 42.7354 80.2815L44.2384 83.0895C44.2924 83.1915 44.2894 83.2935 44.2294 83.3955C44.1754 83.4915 44.0884 83.5395 43.9684 83.5395H43.5544C43.3984 83.5395 43.2514 83.4975 43.1134 83.4135C42.9814 83.3295 42.8854 83.2185 42.8254 83.0805L41.8624 81.0015C41.8624 80.9955 41.8594 80.9925 41.8534 80.9925C41.8474 80.9925 41.8444 80.9955 41.8444 81.0015L40.8814 83.0805C40.8214 83.2185 40.7224 83.3295 40.5844 83.4135C40.4524 83.4975 40.3084 83.5395 40.1524 83.5395H39.7744ZM47.2516 80.7675C46.5316 80.5275 46.0096 80.2365 45.6856 79.8945C45.3676 79.5525 45.2086 79.1385 45.2086 78.6525C45.2086 78.1065 45.3916 77.6745 45.7576 77.3565C46.1236 77.0385 46.6366 76.8795 47.2966 76.8795C47.8546 76.8795 48.3406 76.9425 48.7546 77.0685C48.8986 77.1105 49.0126 77.1975 49.0966 77.3295C49.1866 77.4555 49.2316 77.5965 49.2316 77.7525V77.8335C49.2316 77.9475 49.1806 78.0375 49.0786 78.1035C48.9766 78.1635 48.8716 78.1725 48.7636 78.1305C48.3136 77.9565 47.8546 77.8695 47.3866 77.8695C47.0866 77.8695 46.8586 77.9385 46.7026 78.0765C46.5466 78.2145 46.4686 78.4065 46.4686 78.6525C46.4686 79.0845 46.7506 79.3935 47.3146 79.5795C48.1246 79.8375 48.6856 80.1315 48.9976 80.4615C49.3156 80.7915 49.4746 81.2175 49.4746 81.7395C49.4746 82.9995 48.6976 83.6295 47.1436 83.6295C46.6576 83.6295 46.2166 83.5545 45.8206 83.4045C45.6766 83.3505 45.5626 83.2575 45.4786 83.1255C45.4006 82.9935 45.3616 82.8465 45.3616 82.6845V82.5765C45.3616 82.4625 45.4096 82.3815 45.5056 82.3335C45.6016 82.2795 45.7006 82.2765 45.8026 82.3245C46.1986 82.5225 46.6156 82.6215 47.0536 82.6215C47.8156 82.6215 48.1966 82.3335 48.1966 81.7575C48.1966 81.5235 48.1246 81.3315 47.9806 81.1815C47.8366 81.0255 47.5936 80.8875 47.2516 80.7675ZM51.9589 83.0355L50.8069 77.4735C50.7769 77.3415 50.8039 77.2245 50.8879 77.1225C50.9779 77.0205 51.0889 76.9695 51.2209 76.9695H51.4819C51.6319 76.9695 51.7609 77.0175 51.8689 77.1135C51.9769 77.2095 52.0429 77.3295 52.0669 77.4735L52.8139 82.2075C52.8139 82.2135 52.8169 82.2165 52.8229 82.2165C52.8349 82.2165 52.8409 82.2135 52.8409 82.2075L53.5609 77.4735C53.5849 77.3295 53.6509 77.2095 53.7589 77.1135C53.8669 77.0175 53.9959 76.9695 54.1459 76.9695H54.6859C54.8359 76.9695 54.9649 77.0175 55.0729 77.1135C55.1809 77.2095 55.2469 77.3295 55.2709 77.4735L55.9999 82.2075C55.9999 82.2135 56.0029 82.2165 56.0089 82.2165C56.0149 82.2165 56.0179 82.2135 56.0179 82.2075L56.7649 77.4735C56.7889 77.3295 56.8549 77.2095 56.9629 77.1135C57.0709 77.0175 57.1999 76.9695 57.3499 76.9695H57.5749C57.7069 76.9695 57.8149 77.0205 57.8989 77.1225C57.9829 77.2245 58.0129 77.3415 57.9889 77.4735L56.8369 83.0355C56.8069 83.1795 56.7349 83.2995 56.6209 83.3955C56.5069 83.4915 56.3749 83.5395 56.2249 83.5395H55.7479C55.5979 83.5395 55.4659 83.4915 55.3519 83.3955C55.2439 83.2995 55.1779 83.1795 55.1539 83.0355L54.4069 78.3015C54.4069 78.2955 54.4039 78.2925 54.3979 78.2925C54.3919 78.2925 54.3889 78.2955 54.3889 78.3015L53.6419 83.0355C53.6179 83.1795 53.5489 83.2995 53.4349 83.3955C53.3269 83.4915 53.1979 83.5395 53.0479 83.5395H52.5709C52.4209 83.5395 52.2889 83.4915 52.1749 83.3955C52.0609 83.2995 51.9889 83.1795 51.9589 83.0355ZM60.1663 83.5395C60.0283 83.5395 59.9083 83.4885 59.8063 83.3865C59.7043 83.2845 59.6533 83.1645 59.6533 83.0265V77.4825C59.6533 77.3445 59.7043 77.2245 59.8063 77.1225C59.9083 77.0205 60.0283 76.9695 60.1663 76.9695H60.5263C60.6643 76.9695 60.7843 77.0205 60.8863 77.1225C60.9883 77.2245 61.0393 77.3445 61.0393 77.4825V83.0265C61.0393 83.1645 60.9883 83.2845 60.8863 83.3865C60.7843 83.4885 60.6643 83.5395 60.5263 83.5395H60.1663ZM64.3293 77.9955V80.1645C64.3293 80.2065 64.3533 80.2335 64.4013 80.2455C64.6293 80.2755 64.8513 80.2905 65.0673 80.2905C65.5533 80.2905 65.9223 80.1855 66.1743 79.9755C66.4323 79.7595 66.5613 79.4535 66.5613 79.0575C66.5613 78.2595 66.0633 77.8605 65.0673 77.8605C64.8513 77.8605 64.6293 77.8755 64.4013 77.9055C64.3533 77.9175 64.3293 77.9475 64.3293 77.9955ZM63.5913 83.5395C63.4533 83.5395 63.3333 83.4885 63.2313 83.3865C63.1353 83.2845 63.0873 83.1645 63.0873 83.0265V77.5275C63.0873 77.3835 63.1353 77.2545 63.2313 77.1405C63.3273 77.0265 63.4473 76.9635 63.5913 76.9515C64.1013 76.9035 64.5933 76.8795 65.0673 76.8795C65.9673 76.8795 66.6423 77.0595 67.0923 77.4195C67.5423 77.7735 67.7673 78.2895 67.7673 78.9675C67.7673 79.7175 67.5483 80.2845 67.1103 80.6685C66.6783 81.0525 66.0363 81.2445 65.1843 81.2445C64.9863 81.2445 64.7253 81.2325 64.4013 81.2085C64.3533 81.2085 64.3293 81.2325 64.3293 81.2805V83.0265C64.3293 83.1645 64.2783 83.2845 64.1763 83.3865C64.0743 83.4885 63.9543 83.5395 63.8163 83.5395H63.5913ZM69.7017 83.5395C69.5637 83.5395 69.4437 83.4885 69.3417 83.3865C69.2397 83.2845 69.1887 83.1645 69.1887 83.0265V77.4825C69.1887 77.3445 69.2397 77.2245 69.3417 77.1225C69.4437 77.0205 69.5637 76.9695 69.7017 76.9695H72.7617C72.8997 76.9695 73.0197 77.0205 73.1217 77.1225C73.2237 77.2245 73.2747 77.3445 73.2747 77.4825C73.2747 77.6205 73.2237 77.7405 73.1217 77.8425C73.0197 77.9385 72.8997 77.9865 72.7617 77.9865H70.5297C70.4757 77.9865 70.4487 78.0135 70.4487 78.0675V79.5165C70.4487 79.5705 70.4757 79.5975 70.5297 79.5975H72.6087C72.7467 79.5975 72.8607 79.6455 72.9507 79.7415C73.0467 79.8375 73.0947 79.9515 73.0947 80.0835C73.0947 80.2155 73.0467 80.3295 72.9507 80.4255C72.8607 80.5155 72.7467 80.5605 72.6087 80.5605H70.5297C70.4757 80.5605 70.4487 80.5875 70.4487 80.6415V82.4415C70.4487 82.4955 70.4757 82.5225 70.5297 82.5225H72.7617C72.8997 82.5225 73.0197 82.5735 73.1217 82.6755C73.2237 82.7715 73.2747 82.8885 73.2747 83.0265C73.2747 83.1645 73.2237 83.2845 73.1217 83.3865C73.0197 83.4885 72.8997 83.5395 72.7617 83.5395H69.7017Z" fill="white"/>
<g filter="url(#filter1_d_177_53)">
<path d="M46.9857 29.2459L47.9126 27.5336L49.384 26.9023H52.1168L53.6073 27.5336L54.5533 29.2459L53.6073 29.6668L53.0149 28.9876V33.4358H48.591V28.9876L47.989 29.6668L46.9857 29.2459Z" fill="url(#paint9_linear_177_53)"/>
<path d="M49.4299 26.9023C49.637 27.2467 50.2077 27.9354 50.8345 27.9354C51.4613 27.9354 51.9811 27.2467 52.1627 26.9023" stroke="#650667" stroke-width="2"/>
</g>
<path d="M50.7652 30.1626V30.4869C50.7652 30.5216 50.7818 30.5255 50.8518 30.5421L50.8533 30.5424C50.9103 30.5559 50.9352 30.6974 50.9302 30.7711C50.9302 30.863 50.8327 30.8443 50.8327 30.7618C50.8327 30.666 50.7686 30.6149 50.7165 30.5856C50.6685 30.5586 50.6317 30.5518 50.5984 30.5518C50.5609 30.5518 50.5269 30.556 50.5084 30.5856C50.488 30.6179 50.4919 30.6548 50.5271 30.6793C50.5708 30.7096 50.6244 30.7183 50.6733 30.7487C50.7001 30.7652 50.7108 30.8124 50.7258 30.848C50.739 31.0205 50.8808 31.0592 50.9302 31.0617C51.1956 31.0617 51.2358 30.9511 51.2358 30.7393C50.9883 30.7393 50.9377 30.6324 50.9302 30.4869V30.1626C50.9302 30.022 50.7652 30.0314 50.7652 30.1626Z" fill="#863E83"/>
<path d="M50.0453 30.8424C50.0453 30.9579 50.009 31.0167 49.9684 31.0467C49.9534 31.0499 49.8874 31.0947 49.9234 31.1292C50.0247 31.0674 50.2609 31.0299 50.3396 31.0167C50.4026 31.0062 50.3859 30.898 50.3846 30.8424V29.6144C50.3846 29.322 50.1784 29.2751 50.0453 29.2545C49.9122 29.2339 49.8109 29.3782 49.8934 29.4626C49.9909 29.4626 50.0353 29.5638 50.0453 29.6144V30.8424Z" fill="#863E83"/>
<path d="M50.2853 31.5574C50.3348 31.5439 50.4672 31.2731 50.5272 31.1393C50.5622 31.1656 50.709 31.2181 51.0165 31.2181C51.3239 31.2181 51.3871 30.9756 51.3802 30.8544V30.3707C51.4158 30.3144 51.8001 30.6425 51.8245 30.92C51.8489 31.1974 51.652 31.4243 51.4814 31.5387C51.1927 31.7055 50.4166 31.5574 50.2853 31.5574Z" fill="#863E83"/>
<g filter="url(#filter2_i_177_53)">
<path d="M49.8294 31.3694C49.9119 31.1819 50.235 31.1413 50.3862 31.1444C50.3618 31.2138 50.2737 31.4069 50.1987 31.4912C50.1537 31.5677 50.0294 31.6099 49.9813 31.6149C49.8963 31.6081 49.7469 31.5568 49.8294 31.3694Z" fill="#863E83"/>
<path d="M49.8294 31.3694C49.9119 31.1819 50.235 31.1413 50.3862 31.1444C50.3618 31.2138 50.2737 31.4069 50.1987 31.4912C50.1537 31.5677 50.0294 31.6099 49.9813 31.6149C49.8963 31.6081 49.7469 31.5568 49.8294 31.3694Z" stroke="black"/>
</g>
<rect x="51.0537" y="30.2736" width="0.167846" height="0.395139" rx="0.0839232" fill="#863E83"/>
<g filter="url(#filter3_i_177_53)">
<ellipse cx="45.7045" cy="30.9278" rx="1.03093" ry="1.37457" fill="url(#paint10_linear_177_53)"/>
</g>
<g filter="url(#filter4_i_177_53)">
<ellipse cx="56.0137" cy="30.9278" rx="1.03093" ry="1.37457" fill="url(#paint11_linear_177_53)"/>
</g>
<g filter="url(#filter5_i_177_53)">
<ellipse cx="42.6117" cy="31.2715" rx="0.687285" ry="1.03093" fill="url(#paint12_linear_177_53)"/>
</g>
<g filter="url(#filter6_i_177_53)">
<circle cx="58.7629" cy="31.2715" r="1.03093" fill="url(#paint13_linear_177_53)"/>
</g>
<defs>
<filter id="filter0_i_177_53" x="26.0417" y="29.3465" width="33.8008" height="42.4309" filterUnits="userSpaceOnUse" color-interpolation-filters="sRGB">
<feFlood flood-opacity="0" result="BackgroundImageFix"/>
<feBlend mode="normal" in="SourceGraphic" in2="BackgroundImageFix" result="shape"/>
<feColorMatrix in="SourceAlpha" type="matrix" values="0 0 0 0 0 0 0 0 0 0 0 0 0 0 0 0 0 0 127 0" result="hardAlpha"/>
<feOffset dx="20" dy="-32"/>
<feGaussianBlur stdDeviation="15.95"/>
<feComposite in2="hardAlpha" operator="arithmetic" k2="-1" k3="1"/>
<feColorMatrix type="matrix" values="0 0 0 0 0 0 0 0 0 0 0 0 0 0 0 0 0 0 0.15 0"/>
<feBlend mode="normal" in2="shape" result="effect1_innerShadow_177_53"/>
</filter>
<filter id="filter1_d_177_53" x="31.9857" y="17.3871" width="37.5676" height="37.0487" filterUnits="userSpaceOnUse" color-interpolation-filters="sRGB">
<feFlood flood-opacity="0" result="BackgroundImageFix"/>
<feColorMatrix in="SourceAlpha" type="matrix" values="0 0 0 0 0 0 0 0 0 0 0 0 0 0 0 0 0 0 127 0" result="hardAlpha"/>
<feOffset dy="6"/>
<feGaussianBlur stdDeviation="7.5"/>
<feComposite in2="hardAlpha" operator="out"/>
<feColorMatrix type="matrix" values="0 0 0 0 0 0 0 0 0 0 0 0 0 0 0 0 0 0 0.25 0"/>
<feBlend mode="normal" in2="BackgroundImageFix" result="effect1_dropShadow_177_53"/>
<feBlend mode="normal" in="SourceGraphic" in2="effect1_dropShadow_177_53" result="shape"/>
</filter>
<filter id="filter2_i_177_53" x="49.8054" y="-0.755774" width="20.5809" height="32.3707" filterUnits="userSpaceOnUse" color-interpolation-filters="sRGB">
<feFlood flood-opacity="0" result="BackgroundImageFix"/>
<feBlend mode="normal" in="SourceGraphic" in2="BackgroundImageFix" result="shape"/>
<feColorMatrix in="SourceAlpha" type="matrix" values="0 0 0 0 0 0 0 0 0 0 0 0 0 0 0 0 0 0 127 0" result="hardAlpha"/>
<feOffset dx="20" dy="-32"/>
<feGaussianBlur stdDeviation="15.95"/>
<feComposite in2="hardAlpha" operator="arithmetic" k2="-1" k3="1"/>
<feColorMatrix type="matrix" values="0 0 0 0 0 0 0 0 0 0 0 0 0 0 0 0 0 0 0.15 0"/>
<feBlend mode="normal" in2="shape" result="effect1_innerShadow_177_53"/>
</filter>
<filter id="filter3_i_177_53" x="44.6735" y="24.5533" width="7.06183" height="7.74914" filterUnits="userSpaceOnUse" color-interpolation-filters="sRGB">
<feFlood flood-opacity="0" result="BackgroundImageFix"/>
<feBlend mode="normal" in="SourceGraphic" in2="BackgroundImageFix" result="shape"/>
<feColorMatrix in="SourceAlpha" type="matrix" values="0 0 0 0 0 0 0 0 0 0 0 0 0 0 0 0 0 0 127 0" result="hardAlpha"/>
<feOffset dx="6" dy="-5"/>
<feGaussianBlur stdDeviation="2.5"/>
<feComposite in2="hardAlpha" operator="arithmetic" k2="-1" k3="1"/>
<feColorMatrix type="matrix" values="0 0 0 0 0 0 0 0 0 0 0 0 0 0 0 0 0 0 0.4 0"/>
<feBlend mode="normal" in2="shape" result="effect1_innerShadow_177_53"/>
</filter>
<filter id="filter4_i_177_53" x="54.9828" y="24.5533" width="7.06183" height="7.74914" filterUnits="userSpaceOnUse" color-interpolation-filters="sRGB">
<feFlood flood-opacity="0" result="BackgroundImageFix"/>
<feBlend mode="normal" in="SourceGraphic" in2="BackgroundImageFix" result="shape"/>
<feColorMatrix in="SourceAlpha" type="matrix" values="0 0 0 0 0 0 0 0 0 0 0 0 0 0 0 0 0 0 127 0" result="hardAlpha"/>
<feOffset dx="6" dy="-5"/>
<feGaussianBlur stdDeviation="2.5"/>
<feComposite in2="hardAlpha" operator="arithmetic" k2="-1" k3="1"/>
<feColorMatrix type="matrix" values="0 0 0 0 0 0 0 0 0 0 0 0 0 0 0 0 0 0 0.4 0"/>
<feBlend mode="normal" in2="shape" result="effect1_innerShadow_177_53"/>
</filter>
<filter id="filter5_i_177_53" x="41.9244" y="30.2405" width="1.37457" height="2.06186" filterUnits="userSpaceOnUse" color-interpolation-filters="sRGB">
<feFlood flood-opacity="0" result="BackgroundImageFix"/>
<feBlend mode="normal" in="SourceGraphic" in2="BackgroundImageFix" result="shape"/>
<feColorMatrix in="SourceAlpha" type="matrix" values="0 0 0 0 0 0 0 0 0 0 0 0 0 0 0 0 0 0 127 0" result="hardAlpha"/>
<feOffset dx="7" dy="-4"/>
<feGaussianBlur stdDeviation="2.5"/>
<feComposite in2="hardAlpha" operator="arithmetic" k2="-1" k3="1"/>
<feColorMatrix type="matrix" values="0 0 0 0 0 0 0 0 0 0 0 0 0 0 0 0 0 0 0.4 0"/>
<feBlend mode="normal" in2="shape" result="effect1_innerShadow_177_53"/>
</filter>
<filter id="filter6_i_177_53" x="57.7319" y="26.2405" width="7.06183" height="6.06186" filterUnits="userSpaceOnUse" color-interpolation-filters="sRGB">
<feFlood flood-opacity="0" result="BackgroundImageFix"/>
<feBlend mode="normal" in="SourceGraphic" in2="BackgroundImageFix" result="shape"/>
<feColorMatrix in="SourceAlpha" type="matrix" values="0 0 0 0 0 0 0 0 0 0 0 0 0 0 0 0 0 0 127 0" result="hardAlpha"/>
<feOffset dx="7" dy="-4"/>
<feGaussianBlur stdDeviation="2.5"/>
<feComposite in2="hardAlpha" operator="arithmetic" k2="-1" k3="1"/>
<feColorMatrix type="matrix" values="0 0 0 0 0 0 0 0 0 0 0 0 0 0 0 0 0 0 0.4 0"/>
<feBlend mode="normal" in2="shape" result="effect1_innerShadow_177_53"/>
</filter>
<linearGradient id="paint0_linear_177_53" x1="53.3195" y1="61.9502" x2="53.3195" y2="-127.469" gradientUnits="userSpaceOnUse">
<stop stop-color="#3C0061"/>
<stop offset="1" stop-color="#FD00A7"/>
</linearGradient>
<linearGradient id="paint1_linear_177_53" x1="53.9707" y1="56.5489" x2="52.5154" y2="43.6175" gradientUnits="userSpaceOnUse">
<stop stop-color="#25C3CF"/>
<stop offset="1" stop-color="#E36397"/>
</linearGradient>
<linearGradient id="paint2_linear_177_53" x1="51.2509" y1="35.4766" x2="51.2264" y2="44.3244" gradientUnits="userSpaceOnUse">
<stop stop-color="white"/>
<stop offset="1" stop-opacity="0"/>
</linearGradient>
<linearGradient id="paint3_linear_177_53" x1="33.6795" y1="29.8129" x2="33.6455" y2="60.8898" gradientUnits="userSpaceOnUse">
<stop stop-color="#E36397"/>
<stop offset="1" stop-color="#35AFB8"/>
</linearGradient>
<linearGradient id="paint4_linear_177_53" x1="33.6795" y1="17.0894" x2="33.6795" y2="25.4886" gradientUnits="userSpaceOnUse">
<stop stop-color="white"/>
<stop offset="1" stop-color="white" stop-opacity="0"/>
</linearGradient>
<radialGradient id="paint5_radial_177_53" cx="0" cy="0" r="1" gradientUnits="userSpaceOnUse" gradientTransform="translate(57.5466 68.2329) rotate(-96.4074) scale(15.6487 36.5638)">
<stop stop-color="#36BCCA"/>
<stop offset="1" stop-color="#E36397"/>
</radialGradient>
<linearGradient id="paint6_linear_177_53" x1="34.4281" y1="63.4928" x2="49.1474" y2="61.2474" gradientUnits="userSpaceOnUse">
<stop stop-color="#35AFB8"/>
<stop offset="1" stop-color="#D38EAA"/>
</linearGradient>
<linearGradient id="paint7_linear_177_53" x1="57.7128" y1="40.5406" x2="57.7128" y2="49.9377" gradientUnits="userSpaceOnUse">
<stop stop-color="#419EA5"/>
<stop offset="1" stop-color="#D38EAA"/>
</linearGradient>
<linearGradient id="paint8_linear_177_53" x1="59.7291" y1="41.5773" x2="57.4481" y2="43.3988" gradientUnits="userSpaceOnUse">
<stop stop-color="white"/>
<stop offset="1" stop-color="white" stop-opacity="0"/>
</linearGradient>
<linearGradient id="paint9_linear_177_53" x1="47.1737" y1="26.3382" x2="50.7695" y2="33.4358" gradientUnits="userSpaceOnUse">
<stop stop-color="#31E1EE"/>
<stop offset="1" stop-color="#E34686"/>
</linearGradient>
<linearGradient id="paint10_linear_177_53" x1="45.7045" y1="29.5533" x2="45.7045" y2="32.3024" gradientUnits="userSpaceOnUse">
<stop stop-color="#FF408D"/>
<stop offset="1" stop-color="#FF408D" stop-opacity="0"/>
</linearGradient>
<linearGradient id="paint11_linear_177_53" x1="56.0137" y1="29.5533" x2="56.0137" y2="32.3024" gradientUnits="userSpaceOnUse">
<stop stop-color="#FF408D"/>
<stop offset="1" stop-color="#FF408D" stop-opacity="0"/>
</linearGradient>
<linearGradient id="paint12_linear_177_53" x1="42.6117" y1="30.2405" x2="42.6117" y2="32.3024" gradientUnits="userSpaceOnUse">
<stop stop-color="#FF408D"/>
<stop offset="1" stop-color="#FF408D" stop-opacity="0"/>
</linearGradient>
<linearGradient id="paint13_linear_177_53" x1="58.7629" y1="30.2405" x2="58.7629" y2="32.3024" gradientUnits="userSpaceOnUse">
<stop stop-color="#FF408D"/>
<stop offset="1" stop-color="#FF408D" stop-opacity="0"/>
</linearGradient>
</defs>
</svg>
