<svg width="100" height="100" viewBox="0 0 100 100" fill="none" xmlns="http://www.w3.org/2000/svg">
<circle cx="50" cy="50" r="50" fill="black"/>
<path d="M48.8565 37.9016V45.6147C48.8565 46.4386 49.2522 46.5323 50.9166 46.9264L50.952 46.9348C52.3074 47.2558 52.8989 50.6205 52.78 52.3741C52.78 54.5588 50.4616 54.1129 50.4616 52.1512C50.4616 49.8738 48.9378 48.6592 47.6973 47.9602C46.5577 47.3182 45.6809 47.1577 44.8885 47.1577C43.9968 47.1577 43.1903 47.2575 42.7484 47.9602C42.2651 48.7288 42.3558 49.6072 43.1943 50.1895C44.2323 50.9103 45.507 51.1178 46.6719 51.8391C47.3082 52.2331 47.5636 53.355 47.9202 54.2021C48.2323 58.3039 51.6059 59.2253 52.78 59.2847C59.0931 59.2847 60.0472 56.6542 60.0472 51.6162C54.1621 51.6162 52.9583 49.0749 52.78 45.6147V37.9016C52.78 34.5577 48.8565 34.7806 48.8565 37.9016Z" fill="#D64E86"/>
<path d="M31.7358 54.0683C31.7358 56.8148 30.8739 58.2147 29.9079 58.9281C29.5512 59.0024 27.9818 60.0694 28.8378 60.8898C31.2454 59.4185 36.8631 58.5268 38.7356 58.2147C40.2337 57.965 39.8354 55.391 39.8057 54.0683V24.8654C39.8057 17.9102 34.9014 16.7956 31.7358 16.3052C28.5703 15.8148 26.1628 19.2478 28.1245 21.2541C30.4429 21.2541 31.4981 23.6616 31.7358 24.8654V54.0683Z" fill="#D64E86"/>
<path d="M37.4434 71.0724C38.6204 70.7514 41.7681 64.3104 43.1948 61.13C44.027 61.7542 47.5195 63.0026 54.8314 63.0026C62.1432 63.0026 63.6442 57.2363 63.4808 54.3532V42.8503C64.3279 41.5128 73.4677 49.3151 74.0473 55.9136C74.6269 62.5122 69.9455 67.9069 65.8883 70.6265C59.0223 74.5946 40.5643 71.0724 37.4434 71.0724Z" fill="#D64E86"/>
<g filter="url(#filter0_i_116_111)">
<path d="M26.6012 66.6004C28.5629 62.1419 36.2463 61.1759 39.8428 61.2502C39.2632 62.8998 36.7107 67.4323 34.9273 69.4386C33.4308 70.9351 30.9304 71.6583 29.786 71.7772C28.3577 71.7772 24.6395 71.0588 26.6012 66.6004Z" fill="#D64E86"/>
<path d="M26.6012 66.6004C28.5629 62.1419 36.2463 61.1759 39.8428 61.2502C39.2632 62.8998 36.7107 67.4323 34.9273 69.4386C33.4308 70.9351 30.9304 71.6583 29.786 71.7772C28.3577 71.7772 24.6395 71.0588 26.6012 66.6004Z" stroke="black"/>
</g>
<rect x="55.7178" y="40.5405" width="3.99168" height="9.39709" rx="1.99584" fill="#D64E86"/>
<path d="M28.3543 83.5396C28.2163 83.5396 28.0963 83.4886 27.9943 83.3866C27.8983 83.2846 27.8503 83.1646 27.8503 83.0266V77.4826C27.8503 77.3446 27.8983 77.2246 27.9943 77.1226C28.0963 77.0206 28.2163 76.9696 28.3543 76.9696H28.6423C28.7803 76.9696 28.9003 77.0206 29.0023 77.1226C29.1043 77.2246 29.1553 77.3446 29.1553 77.4826V82.4146C29.1553 82.4686 29.1793 82.4956 29.2273 82.4956H31.5403C31.6783 82.4956 31.7953 82.5466 31.8913 82.6486C31.9933 82.7446 32.0443 82.8616 32.0443 82.9996V83.0266C32.0443 83.1646 31.9933 83.2846 31.8913 83.3866C31.7953 83.4886 31.6783 83.5396 31.5403 83.5396H28.3543ZM38.0098 81.1996C38.0098 82.8196 37.1998 83.6296 35.5798 83.6296C33.9598 83.6296 33.1498 82.8196 33.1498 81.1996V77.4826C33.1498 77.3446 33.2008 77.2246 33.3028 77.1226C33.4048 77.0206 33.5248 76.9696 33.6628 76.9696H33.9148C34.0528 76.9696 34.1728 77.0206 34.2748 77.1226C34.3768 77.2246 34.4278 77.3446 34.4278 77.4826V81.2716C34.4278 81.7396 34.5208 82.0786 34.7068 82.2886C34.8988 82.4926 35.1958 82.5946 35.5978 82.5946C35.9998 82.5946 36.2938 82.4926 36.4798 82.2886C36.6718 82.0786 36.7678 81.7396 36.7678 81.2716V77.4826C36.7678 77.3446 36.8188 77.2246 36.9208 77.1226C37.0228 77.0206 37.1428 76.9696 37.2808 76.9696H37.4968C37.6348 76.9696 37.7548 77.0206 37.8568 77.1226C37.9588 77.2246 38.0098 77.3446 38.0098 77.4826V81.1996ZM39.7746 83.5396C39.6606 83.5396 39.5736 83.4916 39.5136 83.3956C39.4536 83.2936 39.4506 83.1916 39.5046 83.0896L41.0076 80.2816C41.0316 80.2456 41.0316 80.2006 41.0076 80.1466L39.5496 77.4196C39.4956 77.3176 39.4986 77.2186 39.5586 77.1226C39.6186 77.0206 39.7056 76.9696 39.8196 76.9696H40.2066C40.3626 76.9696 40.5066 77.0116 40.6386 77.0956C40.7706 77.1796 40.8696 77.2906 40.9356 77.4286L41.8806 79.4176C41.8806 79.4236 41.8836 79.4266 41.8896 79.4266C41.8956 79.4266 41.8986 79.4236 41.8986 79.4176L42.8436 77.4286C42.9096 77.2906 43.0086 77.1796 43.1406 77.0956C43.2726 77.0116 43.4166 76.9696 43.5726 76.9696H43.9236C44.0436 76.9696 44.1306 77.0206 44.1846 77.1226C44.2446 77.2186 44.2476 77.3176 44.1936 77.4196L42.7356 80.1466C42.7176 80.1886 42.7176 80.2336 42.7356 80.2816L44.2386 83.0896C44.2926 83.1916 44.2896 83.2936 44.2296 83.3956C44.1756 83.4916 44.0886 83.5396 43.9686 83.5396H43.5546C43.3986 83.5396 43.2516 83.4976 43.1136 83.4136C42.9816 83.3296 42.8856 83.2186 42.8256 83.0806L41.8626 81.0016C41.8626 80.9956 41.8596 80.9926 41.8536 80.9926C41.8476 80.9926 41.8446 80.9956 41.8446 81.0016L40.8816 83.0806C40.8216 83.2186 40.7226 83.3296 40.5846 83.4136C40.4526 83.4976 40.3086 83.5396 40.1526 83.5396H39.7746ZM47.2517 80.7676C46.5317 80.5276 46.0097 80.2366 45.6857 79.8946C45.3677 79.5526 45.2087 79.1386 45.2087 78.6526C45.2087 78.1066 45.3917 77.6746 45.7577 77.3566C46.1237 77.0386 46.6367 76.8796 47.2967 76.8796C47.8547 76.8796 48.3407 76.9426 48.7547 77.0686C48.8987 77.1106 49.0127 77.1976 49.0967 77.3296C49.1867 77.4556 49.2317 77.5966 49.2317 77.7526V77.8336C49.2317 77.9476 49.1807 78.0376 49.0787 78.1036C48.9767 78.1636 48.8717 78.1726 48.7637 78.1306C48.3137 77.9566 47.8547 77.8696 47.3867 77.8696C47.0867 77.8696 46.8587 77.9386 46.7027 78.0766C46.5467 78.2146 46.4687 78.4066 46.4687 78.6526C46.4687 79.0846 46.7507 79.3936 47.3147 79.5796C48.1247 79.8376 48.6857 80.1316 48.9977 80.4616C49.3157 80.7916 49.4747 81.2176 49.4747 81.7396C49.4747 82.9996 48.6977 83.6296 47.1437 83.6296C46.6577 83.6296 46.2167 83.5546 45.8207 83.4046C45.6767 83.3506 45.5627 83.2576 45.4787 83.1256C45.4007 82.9936 45.3617 82.8466 45.3617 82.6846V82.5766C45.3617 82.4626 45.4097 82.3816 45.5057 82.3336C45.6017 82.2796 45.7007 82.2766 45.8027 82.3246C46.1987 82.5226 46.6157 82.6216 47.0537 82.6216C47.8157 82.6216 48.1967 82.3336 48.1967 81.7576C48.1967 81.5236 48.1247 81.3316 47.9807 81.1816C47.8367 81.0256 47.5937 80.8876 47.2517 80.7676ZM51.959 83.0356L50.807 77.4736C50.777 77.3416 50.804 77.2246 50.888 77.1226C50.978 77.0206 51.089 76.9696 51.221 76.9696H51.482C51.632 76.9696 51.761 77.0176 51.869 77.1136C51.977 77.2096 52.043 77.3296 52.067 77.4736L52.814 82.2076C52.814 82.2136 52.817 82.2166 52.823 82.2166C52.835 82.2166 52.841 82.2136 52.841 82.2076L53.561 77.4736C53.585 77.3296 53.651 77.2096 53.759 77.1136C53.867 77.0176 53.996 76.9696 54.146 76.9696H54.686C54.836 76.9696 54.965 77.0176 55.073 77.1136C55.181 77.2096 55.247 77.3296 55.271 77.4736L56 82.2076C56 82.2136 56.003 82.2166 56.009 82.2166C56.015 82.2166 56.018 82.2136 56.018 82.2076L56.765 77.4736C56.789 77.3296 56.855 77.2096 56.963 77.1136C57.071 77.0176 57.2 76.9696 57.35 76.9696H57.575C57.707 76.9696 57.815 77.0206 57.899 77.1226C57.983 77.2246 58.013 77.3416 57.989 77.4736L56.837 83.0356C56.807 83.1796 56.735 83.2996 56.621 83.3956C56.507 83.4916 56.375 83.5396 56.225 83.5396H55.748C55.598 83.5396 55.466 83.4916 55.352 83.3956C55.244 83.2996 55.178 83.1796 55.154 83.0356L54.407 78.3016C54.407 78.2956 54.404 78.2926 54.398 78.2926C54.392 78.2926 54.389 78.2956 54.389 78.3016L53.642 83.0356C53.618 83.1796 53.549 83.2996 53.435 83.3956C53.327 83.4916 53.198 83.5396 53.048 83.5396H52.571C52.421 83.5396 52.289 83.4916 52.175 83.3956C52.061 83.2996 51.989 83.1796 51.959 83.0356ZM60.1664 83.5396C60.0284 83.5396 59.9084 83.4886 59.8064 83.3866C59.7044 83.2846 59.6534 83.1646 59.6534 83.0266V77.4826C59.6534 77.3446 59.7044 77.2246 59.8064 77.1226C59.9084 77.0206 60.0284 76.9696 60.1664 76.9696H60.5264C60.6644 76.9696 60.7844 77.0206 60.8864 77.1226C60.9884 77.2246 61.0394 77.3446 61.0394 77.4826V83.0266C61.0394 83.1646 60.9884 83.2846 60.8864 83.3866C60.7844 83.4886 60.6644 83.5396 60.5264 83.5396H60.1664ZM64.3294 77.9956V80.1646C64.3294 80.2066 64.3534 80.2336 64.4014 80.2456C64.6294 80.2756 64.8514 80.2906 65.0674 80.2906C65.5534 80.2906 65.9224 80.1856 66.1744 79.9756C66.4324 79.7596 66.5614 79.4536 66.5614 79.0576C66.5614 78.2596 66.0634 77.8606 65.0674 77.8606C64.8514 77.8606 64.6294 77.8756 64.4014 77.9056C64.3534 77.9176 64.3294 77.9476 64.3294 77.9956ZM63.5914 83.5396C63.4534 83.5396 63.3334 83.4886 63.2314 83.3866C63.1354 83.2846 63.0874 83.1646 63.0874 83.0266V77.5276C63.0874 77.3836 63.1354 77.2546 63.2314 77.1406C63.3274 77.0266 63.4474 76.9636 63.5914 76.9516C64.1014 76.9036 64.5934 76.8796 65.0674 76.8796C65.9674 76.8796 66.6424 77.0596 67.0924 77.4196C67.5424 77.7736 67.7674 78.2896 67.7674 78.9676C67.7674 79.7176 67.5484 80.2846 67.1104 80.6686C66.6784 81.0526 66.0364 81.2446 65.1844 81.2446C64.9864 81.2446 64.7254 81.2326 64.4014 81.2086C64.3534 81.2086 64.3294 81.2326 64.3294 81.2806V83.0266C64.3294 83.1646 64.2784 83.2846 64.1764 83.3866C64.0744 83.4886 63.9544 83.5396 63.8164 83.5396H63.5914ZM69.7018 83.5396C69.5638 83.5396 69.4438 83.4886 69.3418 83.3866C69.2398 83.2846 69.1888 83.1646 69.1888 83.0266V77.4826C69.1888 77.3446 69.2398 77.2246 69.3418 77.1226C69.4438 77.0206 69.5638 76.9696 69.7018 76.9696H72.7618C72.8998 76.9696 73.0198 77.0206 73.1218 77.1226C73.2238 77.2246 73.2748 77.3446 73.2748 77.4826C73.2748 77.6206 73.2238 77.7406 73.1218 77.8426C73.0198 77.9386 72.8998 77.9866 72.7618 77.9866H70.5298C70.4758 77.9866 70.4488 78.0136 70.4488 78.0676V79.5166C70.4488 79.5706 70.4758 79.5976 70.5298 79.5976H72.6088C72.7468 79.5976 72.8608 79.6456 72.9508 79.7416C73.0468 79.8376 73.0948 79.9516 73.0948 80.0836C73.0948 80.2156 73.0468 80.3296 72.9508 80.4256C72.8608 80.5156 72.7468 80.5606 72.6088 80.5606H70.5298C70.4758 80.5606 70.4488 80.5876 70.4488 80.6416V82.4416C70.4488 82.4956 70.4758 82.5226 70.5298 82.5226H72.7618C72.8998 82.5226 73.0198 82.5736 73.1218 82.6756C73.2238 82.7716 73.2748 82.8886 73.2748 83.0266C73.2748 83.1646 73.2238 83.2846 73.1218 83.3866C73.0198 83.4886 72.8998 83.5396 72.7618 83.5396H69.7018Z" fill="#D64E86"/>
<defs>
<filter id="filter0_i_116_111" x="26.042" y="29.3463" width="33.8008" height="42.4308" filterUnits="userSpaceOnUse" color-interpolation-filters="sRGB">
<feFlood flood-opacity="0" result="BackgroundImageFix"/>
<feBlend mode="normal" in="SourceGraphic" in2="BackgroundImageFix" result="shape"/>
<feColorMatrix in="SourceAlpha" type="matrix" values="0 0 0 0 0 0 0 0 0 0 0 0 0 0 0 0 0 0 127 0" result="hardAlpha"/>
<feOffset dx="20" dy="-32"/>
<feGaussianBlur stdDeviation="15.95"/>
<feComposite in2="hardAlpha" operator="arithmetic" k2="-1" k3="1"/>
<feColorMatrix type="matrix" values="0 0 0 0 0 0 0 0 0 0 0 0 0 0 0 0 0 0 0.15 0"/>
<feBlend mode="normal" in2="shape" result="effect1_innerShadow_116_111"/>
</filter>
</defs>
</svg>
